<svg xmlns="http://www.w3.org/2000/svg" viewBox="0 0 64 64" width="64" height="64">
  <!-- Background circle – change fill to tweak colour -->
  <circle cx="32" cy="32" r="30" fill="#6A1B9A"></circle>
  
  <!-- Building shapes (white) -->
  <g fill="#FFFFFF">
    <!-- Left (short) building -->
    <rect x="16.5" y="28" width="12.5" height="16.5" rx="1.2"></rect>
    <!-- Right (tall) building -->
    <rect x="30.5" y="22" width="17" height="22.5" rx="1.4"></rect>
    <!-- Roofline connector -->
    <rect x="28" y="22" width="2.5" height="4"></rect>
  </g>

  <!-- Windows & door (punched with circle colour) -->
  <g fill="#6A1B9A">
    <!-- Left building windows -->
    <rect x="19" y="30.5" width="3" height="3" rx="0.6"></rect>
    <rect x="23.5" y="30.5" width="3" height="3" rx="0.6"></rect>
    <rect x="19" y="35.5" width="3" height="3" rx="0.6"></rect>
    <rect x="23.5" y="35.5" width="3" height="3" rx="0.6"></rect>
    <!-- Right building windows -->
    <rect x="33" y="24.5" width="3.2" height="3.2" rx="0.6"></rect>
    <rect x="37.5" y="24.5" width="3.2" height="3.2" rx="0.6"></rect>
    <rect x="42" y="24.5" width="3.2" height="3.2" rx="0.6"></rect>
    <rect x="33" y="29.5" width="3.2" height="3.2" rx="0.6"></rect>
    <rect x="37.5" y="29.5" width="3.2" height="3.2" rx="0.6"></rect>
    <rect x="42" y="29.5" width="3.2" height="3.2" rx="0.6"></rect>
    <rect x="33" y="34.5" width="3.2" height="3.2" rx="0.6"></rect>
    <rect x="37.5" y="34.5" width="3.2" height="3.2" rx="0.6"></rect>
    <!-- Door -->
    <rect x="41.8" y="34.2" width="4" height="10" rx="0.8"></rect>
  </g>
</svg>
