<?xml version="1.0" encoding="UTF-8"?>
<svg id="Layer_1" xmlns="http://www.w3.org/2000/svg" version="1.1" viewBox="0 0 64 64">
  <!-- Generator: Adobe Illustrator 29.3.1, SVG Export Plug-In . SVG Version: 2.1.0 Build 151)  -->
  <defs>
    <style>
      .st0 {
        fill: #fff;
      }

      .st1 {
        fill: #b61e80;
      }
    </style>
  </defs>
  <circle class="st1" cx="32" cy="32.28" r="32"/>
  <path class="st0" d="M17.98,27.5h4.67v15.38h2.92v-15.38h4.67v15.38h3.5v-15.38h4.67v15.38h2.92v-15.38h4.67v15.72s.09.06.13.09l3.5,2.56c.85.62,1.24,1.79.94,2.88-.3,1.08-1.21,1.82-2.24,1.82H15.64c-1.03,0-1.93-.74-2.23-1.82-.3-1.08.08-2.25.94-2.88l3.5-2.56s.09-.06.13-.09v-15.72ZM33.17,9.56h5.84c.64,0,1.17.58,1.17,1.28v5.12c0,.71-.53,1.28-1.17,1.28h-5.84v2.56h14.02c1.29,0,2.34,1.15,2.34,2.56s-1.04,2.56-2.34,2.56h-30.37c-1.29,0-2.34-1.15-2.34-2.56s1.04-2.56,2.34-2.56h14.02v-8.97c0-.71.53-1.28,1.17-1.28h1.17Z"/>
</svg>