<?xml version="1.0" encoding="UTF-8"?>
<svg id="Layer_1" xmlns="http://www.w3.org/2000/svg" version="1.1" viewBox="0 0 64 64">
  <!-- Generator: Adobe Illustrator 29.3.1, SVG Export Plug-In . SVG Version: 2.1.0 Build 151)  -->
  <defs>
    <style>
      .st0 {
        fill: #fff;
      }

      .st1 {
        fill: #f27123;
      }
    </style>
  </defs>
  <circle class="st1" cx="32" cy="32" r="32"/>
  <path class="st0" d="M29.8,16.57c0,1.42,1.04,2.56,2.34,2.56s2.34-1.15,2.34-2.56v-5.12h5.46c1.98,0,3.74,1.37,4.4,3.41l8.6,26.63c.15.46.23.96.23,1.46,0,2.41-1.78,4.37-3.99,4.37h-14.71v-5.12c0-1.42-1.04-2.56-2.34-2.56s-2.34,1.15-2.34,2.56v5.12h-14.71c-2.2,0-3.99-1.96-3.99-4.37,0-.5.08-.99.23-1.46l8.6-26.63c.66-2.04,2.42-3.41,4.4-3.41h5.46v5.12ZM32.14,24.26c-1.29,0-2.34,1.15-2.34,2.56v5.12c0,1.42,1.04,2.56,2.34,2.56s2.34-1.15,2.34-2.56v-5.12c0-1.42-1.04-2.56-2.34-2.56Z"/>
</svg>