<?xml version="1.0" encoding="UTF-8"?>
<svg id="Layer_1" xmlns="http://www.w3.org/2000/svg" version="1.1" viewBox="0 0 64 64">
  <!-- Generator: Adobe Illustrator 29.3.1, SVG Export Plug-In . SVG Version: 2.1.0 Build 151)  -->
  <defs>
    <style>
      .st0 {
        fill: #fff;
      }

      .st1 {
        fill: #231f20;
      }
    </style>
  </defs>
  <circle class="st1" cx="32" cy="32" r="32"/>
  <path class="st0" d="M53.01,29.88c0,1.44-1.1,2.57-2.34,2.57h-2.34l.05,12.83c0,.22-.01.43-.04.65v1.3c0,1.77-1.31,3.2-2.92,3.2h-1.17c-.08,0-.16,0-.24,0-.1,0-.2,0-.31,0h-2.37s-1.75,0-1.75,0c-1.61,0-2.92-1.43-2.92-3.2v-7.05c0-1.42-1.04-2.56-2.34-2.56h-4.67c-1.29,0-2.34,1.15-2.34,2.56v7.05c0,1.77-1.31,3.2-2.92,3.2h-4.08c-.11,0-.22,0-.33-.02-.09,0-.18.02-.26.02h-1.17c-1.61,0-2.92-1.43-2.92-3.2v-8.97c0-.07,0-.15,0-.22v-5.58h-2.34c-1.31,0-2.34-1.12-2.34-2.57,0-.72.22-1.36.73-1.92L30.42,10.06c.51-.56,1.1-.64,1.61-.64s1.1.16,1.53.56l18.65,17.98c.58.56.88,1.2.8,1.92Z"/>
</svg>