<?xml version="1.0" encoding="UTF-8"?>
<svg id="Layer_1" xmlns="http://www.w3.org/2000/svg" version="1.1" viewBox="0 0 64 64">
  <!-- Generator: Adobe Illustrator 29.3.1, SVG Export Plug-In . SVG Version: 2.1.0 Build 151)  -->
  <defs>
    <style>
      .st0 {
        fill: #fff;
      }

      .st1 {
        fill: #23bbb8;
      }
    </style>
  </defs>
  <circle class="st1" cx="32" cy="32" r="32"/>
  <path class="st0" d="M25.87,27.19l4.48,4.92-12.37,13.57c-2.91-3.62-4.67-8.37-4.67-13.57,0-.58.02-1.17.07-1.75,1.1.3,2.26.46,3.44.46,3.45,0,6.61-1.37,9.05-3.64ZM24.21,25.38c-2.02,1.81-4.59,2.89-7.4,2.89-1.07,0-2.11-.16-3.1-.46.69-3.5,2.18-6.67,4.26-9.27l6.23,6.83ZM28.08,12.06c.27,1.08.42,2.22.42,3.4,0,3.08-.99,5.9-2.64,8.1l-6.22-6.82c2.37-2.28,5.26-3.92,8.45-4.68ZM33.17,48.77c0,1.3.15,2.56.42,3.77-.53.05-1.06.07-1.59.07-4.75,0-9.08-1.94-12.37-5.12l12.37-13.57,4.48,4.92c-2.07,2.68-3.32,6.14-3.32,9.93ZM44.37,16.74l-12.37,13.57-4.48-4.92c2.07-2.68,3.32-6.14,3.32-9.93,0-1.3-.15-2.56-.42-3.77.53-.05,1.06-.07,1.59-.07,4.74,0,9.07,1.94,12.37,5.12ZM47.19,33.39c-3.45,0-6.62,1.37-9.05,3.64l-4.48-4.92,12.37-13.57c2.91,3.62,4.67,8.37,4.67,13.57,0,.58-.02,1.17-.07,1.75-1.1-.3-2.26-.46-3.44-.46ZM38.15,40.66l6.22,6.82c-2.37,2.28-5.26,3.92-8.45,4.68-.27-1.08-.42-2.22-.42-3.4,0-3.08.99-5.9,2.64-8.11h0ZM46.02,45.68l-6.23-6.83c2.01-1.81,4.59-2.89,7.4-2.89,1.07,0,2.11.16,3.1.46-.68,3.51-2.18,6.68-4.26,9.27Z"/>
</svg>