<?xml version="1.0" encoding="UTF-8"?>
<svg id="Layer_1" xmlns="http://www.w3.org/2000/svg" version="1.1" viewBox="0 0 64 64">
  <!-- Generator: Adobe Illustrator 29.3.1, SVG Export Plug-In . SVG Version: 2.1.0 Build 151)  -->
  <defs>
    <style>
      .st0 {
        fill: #fff;
      }

      .st1 {
        fill: #7eba42;
      }
    </style>
  </defs>
  <circle class="st1" cx="32" cy="32.28" r="32"/>
  <path class="st0" d="M32,9.56c.37,0,.73.17.98.47l10.85,13.09c.28.34.44.78.44,1.24,0,1.02-.76,1.85-1.69,1.85h-1.82l5.36,5.88c.31.34.48.8.48,1.28,0,1-.74,1.81-1.65,1.81h-2.44l5.45,7.17c.26.34.39.76.39,1.2,0,1.04-.77,1.88-1.72,1.88h-12.3v2.56c0,1.42-1.04,2.56-2.34,2.56s-2.34-1.15-2.34-2.56v-2.56h-12.3c-.95,0-1.72-.84-1.72-1.88,0-.44.14-.87.39-1.2l5.45-7.17h-2.44c-.91,0-1.65-.81-1.65-1.81,0-.48.18-.95.48-1.28l5.36-5.88h-1.82c-.93,0-1.69-.83-1.69-1.85,0-.46.15-.91.44-1.24l10.85-13.09c.25-.3.61-.47.98-.47Z"/>
</svg>