<svg xmlns="http://www.w3.org/2000/svg" viewBox="0 0 64 64" width="64" height="64">
  <!-- background circle -->
  <circle cx="32" cy="32" r="30" fill="#EF6C00"></circle>
  
  <!-- car silhouette -->
  <g fill="#FFFFFF" stroke="none">
    <!-- body -->
    <path d="M18 34c0-1.2.8-2.3 2-2.8l3.5-1.2 3-4.5c.5-.8 1.4-1.3 2.4-1.3h8.2c.9 0 1.8.5 2.4 1.3l3 4.5 3.5 1.2c1.2.4 2 1.5 2 2.8v4c0 1.1-.9 2-2 2H20c-1.1 0-2-.9-2-2v-4z"></path>
    <!-- wheels -->
    <circle cx="24" cy="40" r="3"></circle>
    <circle cx="40" cy="40" r="3"></circle>
  </g>
</svg>
