<svg xmlns="http://www.w3.org/2000/svg" xmlns:xlink="http://www.w3.org/1999/xlink" width="1080" zoomAndPan="magnify" viewBox="0 0 810 809.999993" height="1080" preserveAspectRatio="xMidYMid meet" version="1.2"><g id="8a93d41a0f"><rect x="0" width="810" y="0" height="809.999993" style="fill:#ffffff;fill-opacity:1;stroke:none;"/><rect x="0" width="810" y="0" height="809.999993" style="fill:#ffffff;fill-opacity:1;stroke:none;"/><path style=" stroke:none;fill-rule:nonzero;fill:#d9d9d9;fill-opacity:1;" d="M 784.6875 405 C 784.6875 411.214844 784.535156 417.425781 784.230469 423.628906 C 783.925781 429.835938 783.46875 436.03125 782.859375 442.214844 C 782.25 448.398438 781.488281 454.566406 780.578125 460.710938 C 779.667969 466.859375 778.605469 472.980469 777.390625 479.074219 C 776.179688 485.167969 774.820312 491.230469 773.308594 497.257812 C 771.800781 503.285156 770.140625 509.269531 768.339844 515.21875 C 766.535156 521.164062 764.585938 527.0625 762.492188 532.914062 C 760.398438 538.761719 758.164062 544.558594 755.785156 550.300781 C 753.40625 556.039062 750.890625 561.71875 748.234375 567.335938 C 745.578125 572.953125 742.785156 578.503906 739.855469 583.984375 C 736.925781 589.464844 733.863281 594.867188 730.667969 600.199219 C 727.472656 605.527344 724.152344 610.777344 720.699219 615.941406 C 717.246094 621.109375 713.667969 626.1875 709.96875 631.179688 C 706.265625 636.171875 702.445312 641.066406 698.503906 645.871094 C 694.558594 650.675781 690.503906 655.378906 686.328125 659.984375 C 682.15625 664.585938 677.875 669.085938 673.480469 673.480469 C 669.085938 677.875 664.585938 682.15625 659.984375 686.328125 C 655.378906 690.503906 650.675781 694.558594 645.871094 698.503906 C 641.066406 702.445312 636.171875 706.265625 631.179688 709.96875 C 626.1875 713.667969 621.109375 717.246094 615.941406 720.699219 C 610.777344 724.152344 605.527344 727.472656 600.199219 730.667969 C 594.867188 733.863281 589.464844 736.925781 583.984375 739.855469 C 578.503906 742.785156 572.953125 745.578125 567.335938 748.234375 C 561.71875 750.890625 556.039062 753.40625 550.300781 755.785156 C 544.558594 758.164062 538.761719 760.398438 532.914062 762.492188 C 527.0625 764.585938 521.164062 766.535156 515.21875 768.339844 C 509.269531 770.140625 503.285156 771.796875 497.257812 773.308594 C 491.230469 774.820312 485.167969 776.179688 479.074219 777.390625 C 472.980469 778.605469 466.859375 779.667969 460.710938 780.578125 C 454.566406 781.488281 448.398438 782.25 442.214844 782.859375 C 436.03125 783.46875 429.835938 783.925781 423.628906 784.230469 C 417.425781 784.535156 411.214844 784.6875 405 784.6875 C 398.785156 784.6875 392.574219 784.535156 386.371094 784.230469 C 380.164062 783.925781 373.96875 783.46875 367.785156 782.859375 C 361.601562 782.25 355.433594 781.488281 349.289062 780.578125 C 343.140625 779.667969 337.019531 778.605469 330.925781 777.390625 C 324.832031 776.179688 318.769531 774.820312 312.742188 773.308594 C 306.714844 771.800781 300.730469 770.140625 294.78125 768.339844 C 288.835938 766.535156 282.9375 764.585938 277.085938 762.492188 C 271.238281 760.398438 265.441406 758.164062 259.699219 755.785156 C 253.957031 753.40625 248.28125 750.890625 242.664062 748.234375 C 237.046875 745.578125 231.496094 742.785156 226.015625 739.855469 C 220.535156 736.925781 215.132812 733.863281 209.800781 730.667969 C 204.472656 727.472656 199.222656 724.152344 194.058594 720.699219 C 188.890625 717.246094 183.8125 713.667969 178.820312 709.96875 C 173.828125 706.265625 168.933594 702.445312 164.128906 698.503906 C 159.324219 694.558594 154.621094 690.503906 150.015625 686.328125 C 145.414062 682.15625 140.914062 677.875 136.519531 673.480469 C 132.125 669.085938 127.84375 664.585938 123.671875 659.984375 C 119.496094 655.378906 115.441406 650.675781 111.496094 645.871094 C 107.554688 641.066406 103.734375 636.171875 100.03125 631.179688 C 96.332031 626.1875 92.753906 621.109375 89.300781 615.941406 C 85.847656 610.777344 82.527344 605.527344 79.332031 600.199219 C 76.136719 594.867188 73.074219 589.464844 70.144531 583.984375 C 67.214844 578.503906 64.421875 572.953125 61.765625 567.335938 C 59.109375 561.71875 56.59375 556.039062 54.214844 550.300781 C 51.835938 544.558594 49.601562 538.761719 47.507812 532.914062 C 45.414062 527.0625 43.464844 521.164062 41.660156 515.21875 C 39.859375 509.269531 38.199219 503.285156 36.691406 497.257812 C 35.179688 491.230469 33.820312 485.167969 32.609375 479.074219 C 31.394531 472.980469 30.332031 466.859375 29.421875 460.710938 C 28.511719 454.566406 27.75 448.398438 27.140625 442.214844 C 26.53125 436.03125 26.074219 429.835938 25.769531 423.628906 C 25.464844 417.425781 25.3125 411.214844 25.3125 405 C 25.3125 398.785156 25.464844 392.574219 25.769531 386.371094 C 26.074219 380.164062 26.53125 373.96875 27.140625 367.785156 C 27.75 361.601562 28.511719 355.433594 29.421875 349.289062 C 30.332031 343.140625 31.394531 337.019531 32.609375 330.925781 C 33.820312 324.832031 35.179688 318.769531 36.691406 312.742188 C 38.199219 306.714844 39.859375 300.730469 41.660156 294.78125 C 43.464844 288.835938 45.414062 282.9375 47.507812 277.085938 C 49.601562 271.238281 51.835938 265.441406 54.214844 259.699219 C 56.59375 253.960938 59.109375 248.28125 61.765625 242.664062 C 64.421875 237.046875 67.214844 231.496094 70.144531 226.015625 C 73.074219 220.535156 76.136719 215.132812 79.332031 209.800781 C 82.527344 204.472656 85.847656 199.222656 89.300781 194.058594 C 92.753906 188.890625 96.332031 183.8125 100.03125 178.820312 C 103.734375 173.828125 107.554688 168.933594 111.496094 164.128906 C 115.441406 159.324219 119.496094 154.621094 123.671875 150.015625 C 127.84375 145.414062 132.125 140.914062 136.519531 136.519531 C 140.914062 132.125 145.414062 127.84375 150.015625 123.671875 C 154.621094 119.496094 159.324219 115.441406 164.128906 111.496094 C 168.933594 107.554688 173.828125 103.734375 178.820312 100.03125 C 183.8125 96.332031 188.890625 92.753906 194.058594 89.300781 C 199.222656 85.847656 204.472656 82.527344 209.800781 79.332031 C 215.132812 76.136719 220.535156 73.074219 226.015625 70.144531 C 231.496094 67.214844 237.046875 64.421875 242.664062 61.765625 C 248.28125 59.109375 253.960938 56.59375 259.699219 54.214844 C 265.441406 51.835938 271.238281 49.601562 277.085938 47.507812 C 282.9375 45.414062 288.835938 43.464844 294.78125 41.660156 C 300.730469 39.859375 306.714844 38.199219 312.742188 36.691406 C 318.769531 35.179688 324.832031 33.820312 330.925781 32.609375 C 337.019531 31.394531 343.140625 30.332031 349.289062 29.421875 C 355.433594 28.511719 361.601562 27.75 367.785156 27.140625 C 373.96875 26.53125 380.164062 26.074219 386.371094 25.769531 C 392.574219 25.464844 398.785156 25.3125 405 25.3125 C 411.214844 25.3125 417.425781 25.464844 423.628906 25.769531 C 429.835938 26.074219 436.03125 26.53125 442.214844 27.140625 C 448.398438 27.75 454.566406 28.511719 460.710938 29.421875 C 466.859375 30.332031 472.980469 31.394531 479.074219 32.609375 C 485.167969 33.820312 491.230469 35.179688 497.257812 36.691406 C 503.285156 38.199219 509.269531 39.859375 515.21875 41.660156 C 521.164062 43.464844 527.0625 45.414062 532.914062 47.507812 C 538.761719 49.601562 544.558594 51.835938 550.300781 54.214844 C 556.039062 56.59375 561.71875 59.109375 567.335938 61.765625 C 572.953125 64.421875 578.503906 67.214844 583.984375 70.144531 C 589.464844 73.074219 594.867188 76.136719 600.199219 79.332031 C 605.527344 82.527344 610.777344 85.847656 615.941406 89.300781 C 621.109375 92.753906 626.1875 96.332031 631.179688 100.03125 C 636.171875 103.734375 641.066406 107.554688 645.871094 111.496094 C 650.675781 115.441406 655.378906 119.496094 659.984375 123.671875 C 664.585938 127.84375 669.085938 132.125 673.480469 136.519531 C 677.875 140.914062 682.15625 145.414062 686.328125 150.015625 C 690.503906 154.621094 694.558594 159.324219 698.503906 164.128906 C 702.445312 168.933594 706.265625 173.828125 709.96875 178.820312 C 713.667969 183.8125 717.246094 188.890625 720.699219 194.058594 C 724.152344 199.222656 727.472656 204.472656 730.667969 209.800781 C 733.863281 215.132812 736.925781 220.535156 739.855469 226.015625 C 742.785156 231.496094 745.578125 237.046875 748.234375 242.664062 C 750.890625 248.28125 753.40625 253.960938 755.785156 259.699219 C 758.164062 265.441406 760.398438 271.238281 762.492188 277.085938 C 764.585938 282.9375 766.535156 288.835938 768.339844 294.78125 C 770.140625 300.730469 771.796875 306.714844 773.308594 312.742188 C 774.820312 318.769531 776.179688 324.832031 777.390625 330.925781 C 778.605469 337.019531 779.667969 343.140625 780.578125 349.289062 C 781.488281 355.433594 782.25 361.601562 782.859375 367.785156 C 783.46875 373.96875 783.925781 380.164062 784.230469 386.371094 C 784.535156 392.574219 784.6875 398.785156 784.6875 405 Z M 784.6875 405 "/><path style=" stroke:none;fill-rule:nonzero;fill:#ffffff;fill-opacity:1;" d="M 556.875 379.6875 C 556.875 382.171875 556.8125 384.65625 556.691406 387.140625 C 556.570312 389.621094 556.386719 392.101562 556.144531 394.574219 C 555.898438 397.046875 555.597656 399.511719 555.230469 401.972656 C 554.867188 404.429688 554.441406 406.878906 553.957031 409.316406 C 553.472656 411.753906 552.925781 414.179688 552.324219 416.589844 C 551.71875 419 551.058594 421.394531 550.335938 423.773438 C 549.613281 426.152344 548.835938 428.511719 547.996094 430.851562 C 547.160156 433.191406 546.265625 435.511719 545.3125 437.808594 C 544.363281 440.105469 543.355469 442.375 542.292969 444.621094 C 541.230469 446.871094 540.113281 449.089844 538.941406 451.28125 C 537.769531 453.472656 536.546875 455.636719 535.265625 457.765625 C 533.988281 459.898438 532.660156 461.996094 531.28125 464.066406 C 529.898438 466.132812 528.46875 468.164062 526.988281 470.160156 C 525.507812 472.15625 523.976562 474.113281 522.402344 476.035156 C 520.824219 477.957031 519.199219 479.839844 517.53125 481.679688 C 515.863281 483.523438 514.148438 485.320312 512.390625 487.078125 C 510.632812 488.835938 508.835938 490.550781 506.992188 492.21875 C 505.152344 493.886719 503.269531 495.511719 501.347656 497.089844 C 499.425781 498.664062 497.46875 500.195312 495.472656 501.675781 C 493.476562 503.15625 491.445312 504.585938 489.378906 505.96875 C 487.308594 507.347656 485.210938 508.675781 483.078125 509.953125 C 480.949219 511.234375 478.785156 512.457031 476.59375 513.628906 C 474.402344 514.800781 472.183594 515.917969 469.933594 516.980469 C 467.6875 518.042969 465.417969 519.050781 463.121094 520 C 460.824219 520.953125 458.503906 521.847656 456.164062 522.683594 C 453.824219 523.523438 451.464844 524.300781 449.085938 525.023438 C 446.707031 525.746094 444.3125 526.40625 441.902344 527.011719 C 439.492188 527.613281 437.066406 528.160156 434.628906 528.644531 C 432.191406 529.128906 429.742188 529.554688 427.285156 529.917969 C 424.824219 530.285156 422.359375 530.585938 419.886719 530.832031 C 417.414062 531.074219 414.933594 531.257812 412.453125 531.378906 C 409.96875 531.5 407.484375 531.5625 405 531.5625 C 402.515625 531.5625 400.03125 531.5 397.546875 531.378906 C 395.066406 531.257812 392.585938 531.074219 390.113281 530.832031 C 387.640625 530.585938 385.175781 530.285156 382.714844 529.917969 C 380.257812 529.554688 377.808594 529.128906 375.371094 528.644531 C 372.933594 528.160156 370.507812 527.613281 368.097656 527.011719 C 365.6875 526.40625 363.292969 525.746094 360.914062 525.023438 C 358.535156 524.300781 356.175781 523.523438 353.835938 522.683594 C 351.496094 521.847656 349.175781 520.953125 346.878906 520 C 344.582031 519.050781 342.3125 518.042969 340.066406 516.980469 C 337.816406 515.917969 335.597656 514.800781 333.40625 513.628906 C 331.214844 512.457031 329.050781 511.234375 326.921875 509.953125 C 324.789062 508.675781 322.6875 507.347656 320.621094 505.96875 C 318.554688 504.585938 316.523438 503.15625 314.527344 501.675781 C 312.53125 500.195312 310.574219 498.664062 308.652344 497.089844 C 306.730469 495.511719 304.847656 493.886719 303.007812 492.21875 C 301.164062 490.550781 299.367188 488.835938 297.609375 487.078125 C 295.851562 485.320312 294.136719 483.523438 292.46875 481.679688 C 290.796875 479.839844 289.175781 477.957031 287.597656 476.035156 C 286.023438 474.113281 284.492188 472.15625 283.011719 470.160156 C 281.53125 468.164062 280.101562 466.132812 278.71875 464.066406 C 277.339844 461.996094 276.011719 459.898438 274.730469 457.765625 C 273.453125 455.636719 272.230469 453.472656 271.058594 451.28125 C 269.886719 449.089844 268.769531 446.871094 267.707031 444.621094 C 266.644531 442.375 265.636719 440.105469 264.6875 437.808594 C 263.734375 435.511719 262.839844 433.191406 262.003906 430.851562 C 261.164062 428.511719 260.386719 426.152344 259.664062 423.773438 C 258.941406 421.394531 258.28125 419 257.675781 416.589844 C 257.074219 414.179688 256.527344 411.753906 256.042969 409.316406 C 255.558594 406.878906 255.132812 404.429688 254.769531 401.972656 C 254.402344 399.511719 254.101562 397.046875 253.855469 394.574219 C 253.613281 392.101562 253.429688 389.621094 253.308594 387.140625 C 253.1875 384.65625 253.125 382.171875 253.125 379.6875 C 253.125 377.203125 253.1875 374.71875 253.308594 372.234375 C 253.429688 369.753906 253.613281 367.273438 253.855469 364.800781 C 254.101562 362.328125 254.402344 359.863281 254.769531 357.402344 C 255.132812 354.945312 255.558594 352.496094 256.042969 350.058594 C 256.527344 347.621094 257.074219 345.195312 257.675781 342.785156 C 258.28125 340.375 258.941406 337.980469 259.664062 335.601562 C 260.386719 333.222656 261.164062 330.863281 262.003906 328.523438 C 262.839844 326.183594 263.734375 323.863281 264.6875 321.566406 C 265.636719 319.269531 266.644531 317 267.707031 314.753906 C 268.769531 312.503906 269.886719 310.285156 271.058594 308.09375 C 272.230469 305.902344 273.453125 303.738281 274.730469 301.609375 C 276.011719 299.476562 277.339844 297.375 278.71875 295.308594 C 280.101562 293.242188 281.53125 291.210938 283.011719 289.214844 C 284.492188 287.21875 286.023438 285.261719 287.597656 283.339844 C 289.175781 281.417969 290.796875 279.535156 292.46875 277.695312 C 294.136719 275.851562 295.851562 274.054688 297.609375 272.296875 C 299.367188 270.539062 301.164062 268.824219 303.007812 267.15625 C 304.847656 265.488281 306.730469 263.863281 308.652344 262.285156 C 310.574219 260.710938 312.53125 259.179688 314.527344 257.699219 C 316.523438 256.21875 318.554688 254.789062 320.621094 253.40625 C 322.6875 252.027344 324.789062 250.699219 326.921875 249.421875 C 329.050781 248.140625 331.214844 246.917969 333.40625 245.746094 C 335.597656 244.574219 337.816406 243.457031 340.066406 242.394531 C 342.3125 241.332031 344.582031 240.324219 346.878906 239.375 C 349.175781 238.421875 351.496094 237.527344 353.835938 236.691406 C 356.175781 235.851562 358.535156 235.074219 360.914062 234.351562 C 363.292969 233.628906 365.6875 232.96875 368.097656 232.363281 C 370.507812 231.761719 372.933594 231.214844 375.371094 230.730469 C 377.808594 230.246094 380.257812 229.820312 382.714844 229.457031 C 385.175781 229.089844 387.640625 228.789062 390.113281 228.542969 C 392.585938 228.300781 395.066406 228.117188 397.546875 227.996094 C 400.03125 227.875 402.515625 227.8125 405 227.8125 C 407.484375 227.8125 409.96875 227.875 412.453125 227.996094 C 414.933594 228.117188 417.414062 228.300781 419.886719 228.542969 C 422.359375 228.789062 424.824219 229.089844 427.285156 229.457031 C 429.742188 229.820312 432.191406 230.246094 434.628906 230.730469 C 437.066406 231.214844 439.492188 231.761719 441.902344 232.363281 C 444.3125 232.96875 446.707031 233.628906 449.085938 234.351562 C 451.464844 235.074219 453.824219 235.851562 456.164062 236.691406 C 458.503906 237.527344 460.824219 238.421875 463.121094 239.375 C 465.417969 240.324219 467.6875 241.332031 469.933594 242.394531 C 472.183594 243.457031 474.402344 244.574219 476.59375 245.746094 C 478.785156 246.917969 480.949219 248.140625 483.078125 249.421875 C 485.210938 250.699219 487.308594 252.027344 489.378906 253.40625 C 491.445312 254.789062 493.476562 256.21875 495.472656 257.699219 C 497.46875 259.179688 499.425781 260.710938 501.347656 262.285156 C 503.269531 263.863281 505.152344 265.488281 506.992188 267.15625 C 508.835938 268.824219 510.632812 270.539062 512.390625 272.296875 C 514.148438 274.054688 515.863281 275.851562 517.53125 277.695312 C 519.199219 279.535156 520.824219 281.417969 522.402344 283.339844 C 523.976562 285.261719 525.507812 287.21875 526.988281 289.214844 C 528.46875 291.210938 529.898438 293.242188 531.28125 295.308594 C 532.660156 297.375 533.988281 299.476562 535.265625 301.609375 C 536.546875 303.738281 537.769531 305.902344 538.941406 308.09375 C 540.113281 310.285156 541.230469 312.503906 542.292969 314.753906 C 543.355469 317 544.363281 319.269531 545.3125 321.566406 C 546.265625 323.863281 547.160156 326.183594 547.996094 328.523438 C 548.835938 330.863281 549.613281 333.222656 550.335938 335.601562 C 551.058594 337.980469 551.71875 340.375 552.324219 342.785156 C 552.925781 345.195312 553.472656 347.621094 553.957031 350.058594 C 554.441406 352.496094 554.867188 354.945312 555.230469 357.402344 C 555.597656 359.863281 555.898438 362.328125 556.144531 364.800781 C 556.386719 367.273438 556.570312 369.753906 556.691406 372.234375 C 556.8125 374.71875 556.875 377.203125 556.875 379.6875 Z M 556.875 379.6875 "/><path style="fill:none;stroke-width:3;stroke-linecap:round;stroke-linejoin:round;stroke:#fbc02d;stroke-opacity:1;stroke-miterlimit:4;" d="M 26.000001 30 L 30.000001 34 L 38.000002 26 " transform="matrix(12.656249,0,0,12.656249,0.0000035,0.00002)"/><path style=" stroke:none;fill-rule:nonzero;fill:#ffffff;fill-opacity:1;" d="M 354.375 531.5625 L 405 493.59375 L 455.625 531.5625 L 506.25 493.59375 L 506.25 594.84375 L 455.625 569.53125 L 405 594.84375 L 354.375 569.53125 L 303.75 594.84375 L 303.75 493.59375 Z M 354.375 531.5625 "/></g></svg>