<svg xmlns="http://www.w3.org/2000/svg" xmlns:xlink="http://www.w3.org/1999/xlink" width="1080" zoomAndPan="magnify" viewBox="0 0 810 809.999993" height="1080" preserveAspectRatio="xMidYMid meet" version="1.2"><g id="0ec14cb22b"><rect x="0" width="810" y="0" height="809.999993" style="fill:#ffffff;fill-opacity:1;stroke:none;"/><rect x="0" width="810" y="0" height="809.999993" style="fill:#ffffff;fill-opacity:1;stroke:none;"/><path style=" stroke:none;fill-rule:nonzero;fill:#d9d9d9;fill-opacity:1;" d="M 784.6875 405 C 784.6875 411.214844 784.535156 417.425781 784.230469 423.628906 C 783.925781 429.835938 783.46875 436.03125 782.859375 442.214844 C 782.25 448.398438 781.488281 454.566406 780.578125 460.710938 C 779.667969 466.859375 778.605469 472.980469 777.390625 479.074219 C 776.179688 485.167969 774.820312 491.230469 773.308594 497.257812 C 771.800781 503.285156 770.140625 509.269531 768.339844 515.21875 C 766.535156 521.164062 764.585938 527.0625 762.492188 532.914062 C 760.398438 538.761719 758.164062 544.558594 755.785156 550.300781 C 753.40625 556.039062 750.890625 561.71875 748.234375 567.335938 C 745.578125 572.953125 742.785156 578.503906 739.855469 583.984375 C 736.925781 589.464844 733.863281 594.867188 730.667969 600.199219 C 727.472656 605.527344 724.152344 610.777344 720.699219 615.941406 C 717.246094 621.109375 713.667969 626.1875 709.96875 631.179688 C 706.265625 636.171875 702.445312 641.066406 698.503906 645.871094 C 694.558594 650.675781 690.503906 655.378906 686.328125 659.984375 C 682.15625 664.585938 677.875 669.085938 673.480469 673.480469 C 669.085938 677.875 664.585938 682.15625 659.984375 686.328125 C 655.378906 690.503906 650.675781 694.558594 645.871094 698.503906 C 641.066406 702.445312 636.171875 706.265625 631.179688 709.96875 C 626.1875 713.667969 621.109375 717.246094 615.941406 720.699219 C 610.777344 724.152344 605.527344 727.472656 600.199219 730.667969 C 594.867188 733.863281 589.464844 736.925781 583.984375 739.855469 C 578.503906 742.785156 572.953125 745.578125 567.335938 748.234375 C 561.71875 750.890625 556.039062 753.40625 550.300781 755.785156 C 544.558594 758.164062 538.761719 760.398438 532.914062 762.492188 C 527.0625 764.585938 521.164062 766.535156 515.21875 768.339844 C 509.269531 770.140625 503.285156 771.796875 497.257812 773.308594 C 491.230469 774.820312 485.167969 776.179688 479.074219 777.390625 C 472.980469 778.605469 466.859375 779.667969 460.710938 780.578125 C 454.566406 781.488281 448.398438 782.25 442.214844 782.859375 C 436.03125 783.46875 429.835938 783.925781 423.628906 784.230469 C 417.425781 784.535156 411.214844 784.6875 405 784.6875 C 398.785156 784.6875 392.574219 784.535156 386.371094 784.230469 C 380.164062 783.925781 373.96875 783.46875 367.785156 782.859375 C 361.601562 782.25 355.433594 781.488281 349.289062 780.578125 C 343.140625 779.667969 337.019531 778.605469 330.925781 777.390625 C 324.832031 776.179688 318.769531 774.820312 312.742188 773.308594 C 306.714844 771.800781 300.730469 770.140625 294.78125 768.339844 C 288.835938 766.535156 282.9375 764.585938 277.085938 762.492188 C 271.238281 760.398438 265.441406 758.164062 259.699219 755.785156 C 253.957031 753.40625 248.28125 750.890625 242.664062 748.234375 C 237.046875 745.578125 231.496094 742.785156 226.015625 739.855469 C 220.535156 736.925781 215.132812 733.863281 209.800781 730.667969 C 204.472656 727.472656 199.222656 724.152344 194.058594 720.699219 C 188.890625 717.246094 183.8125 713.667969 178.820312 709.96875 C 173.828125 706.265625 168.933594 702.445312 164.128906 698.503906 C 159.324219 694.558594 154.621094 690.503906 150.015625 686.328125 C 145.414062 682.15625 140.914062 677.875 136.519531 673.480469 C 132.125 669.085938 127.84375 664.585938 123.671875 659.984375 C 119.496094 655.378906 115.441406 650.675781 111.496094 645.871094 C 107.554688 641.066406 103.734375 636.171875 100.03125 631.179688 C 96.332031 626.1875 92.753906 621.109375 89.300781 615.941406 C 85.847656 610.777344 82.527344 605.527344 79.332031 600.199219 C 76.136719 594.867188 73.074219 589.464844 70.144531 583.984375 C 67.214844 578.503906 64.421875 572.953125 61.765625 567.335938 C 59.109375 561.71875 56.59375 556.039062 54.214844 550.300781 C 51.835938 544.558594 49.601562 538.761719 47.507812 532.914062 C 45.414062 527.0625 43.464844 521.164062 41.660156 515.21875 C 39.859375 509.269531 38.199219 503.285156 36.691406 497.257812 C 35.179688 491.230469 33.820312 485.167969 32.609375 479.074219 C 31.394531 472.980469 30.332031 466.859375 29.421875 460.710938 C 28.511719 454.566406 27.75 448.398438 27.140625 442.214844 C 26.53125 436.03125 26.074219 429.835938 25.769531 423.628906 C 25.464844 417.425781 25.3125 411.214844 25.3125 405 C 25.3125 398.785156 25.464844 392.574219 25.769531 386.371094 C 26.074219 380.164062 26.53125 373.96875 27.140625 367.785156 C 27.75 361.601562 28.511719 355.433594 29.421875 349.289062 C 30.332031 343.140625 31.394531 337.019531 32.609375 330.925781 C 33.820312 324.832031 35.179688 318.769531 36.691406 312.742188 C 38.199219 306.714844 39.859375 300.730469 41.660156 294.78125 C 43.464844 288.835938 45.414062 282.9375 47.507812 277.085938 C 49.601562 271.238281 51.835938 265.441406 54.214844 259.699219 C 56.59375 253.960938 59.109375 248.28125 61.765625 242.664062 C 64.421875 237.046875 67.214844 231.496094 70.144531 226.015625 C 73.074219 220.535156 76.136719 215.132812 79.332031 209.800781 C 82.527344 204.472656 85.847656 199.222656 89.300781 194.058594 C 92.753906 188.890625 96.332031 183.8125 100.03125 178.820312 C 103.734375 173.828125 107.554688 168.933594 111.496094 164.128906 C 115.441406 159.324219 119.496094 154.621094 123.671875 150.015625 C 127.84375 145.414062 132.125 140.914062 136.519531 136.519531 C 140.914062 132.125 145.414062 127.84375 150.015625 123.671875 C 154.621094 119.496094 159.324219 115.441406 164.128906 111.496094 C 168.933594 107.554688 173.828125 103.734375 178.820312 100.03125 C 183.8125 96.332031 188.890625 92.753906 194.058594 89.300781 C 199.222656 85.847656 204.472656 82.527344 209.800781 79.332031 C 215.132812 76.136719 220.535156 73.074219 226.015625 70.144531 C 231.496094 67.214844 237.046875 64.421875 242.664062 61.765625 C 248.28125 59.109375 253.960938 56.59375 259.699219 54.214844 C 265.441406 51.835938 271.238281 49.601562 277.085938 47.507812 C 282.9375 45.414062 288.835938 43.464844 294.78125 41.660156 C 300.730469 39.859375 306.714844 38.199219 312.742188 36.691406 C 318.769531 35.179688 324.832031 33.820312 330.925781 32.609375 C 337.019531 31.394531 343.140625 30.332031 349.289062 29.421875 C 355.433594 28.511719 361.601562 27.75 367.785156 27.140625 C 373.96875 26.53125 380.164062 26.074219 386.371094 25.769531 C 392.574219 25.464844 398.785156 25.3125 405 25.3125 C 411.214844 25.3125 417.425781 25.464844 423.628906 25.769531 C 429.835938 26.074219 436.03125 26.53125 442.214844 27.140625 C 448.398438 27.75 454.566406 28.511719 460.710938 29.421875 C 466.859375 30.332031 472.980469 31.394531 479.074219 32.609375 C 485.167969 33.820312 491.230469 35.179688 497.257812 36.691406 C 503.285156 38.199219 509.269531 39.859375 515.21875 41.660156 C 521.164062 43.464844 527.0625 45.414062 532.914062 47.507812 C 538.761719 49.601562 544.558594 51.835938 550.300781 54.214844 C 556.039062 56.59375 561.71875 59.109375 567.335938 61.765625 C 572.953125 64.421875 578.503906 67.214844 583.984375 70.144531 C 589.464844 73.074219 594.867188 76.136719 600.199219 79.332031 C 605.527344 82.527344 610.777344 85.847656 615.941406 89.300781 C 621.109375 92.753906 626.1875 96.332031 631.179688 100.03125 C 636.171875 103.734375 641.066406 107.554688 645.871094 111.496094 C 650.675781 115.441406 655.378906 119.496094 659.984375 123.671875 C 664.585938 127.84375 669.085938 132.125 673.480469 136.519531 C 677.875 140.914062 682.15625 145.414062 686.328125 150.015625 C 690.503906 154.621094 694.558594 159.324219 698.503906 164.128906 C 702.445312 168.933594 706.265625 173.828125 709.96875 178.820312 C 713.667969 183.8125 717.246094 188.890625 720.699219 194.058594 C 724.152344 199.222656 727.472656 204.472656 730.667969 209.800781 C 733.863281 215.132812 736.925781 220.535156 739.855469 226.015625 C 742.785156 231.496094 745.578125 237.046875 748.234375 242.664062 C 750.890625 248.28125 753.40625 253.960938 755.785156 259.699219 C 758.164062 265.441406 760.398438 271.238281 762.492188 277.085938 C 764.585938 282.9375 766.535156 288.835938 768.339844 294.78125 C 770.140625 300.730469 771.796875 306.714844 773.308594 312.742188 C 774.820312 318.769531 776.179688 324.832031 777.390625 330.925781 C 778.605469 337.019531 779.667969 343.140625 780.578125 349.289062 C 781.488281 355.433594 782.25 361.601562 782.859375 367.785156 C 783.46875 373.96875 783.925781 380.164062 784.230469 386.371094 C 784.535156 392.574219 784.6875 398.785156 784.6875 405 Z M 784.6875 405 "/><path style=" stroke:none;fill-rule:nonzero;fill:#ffffff;fill-opacity:1;" d="M 227.8125 480.9375 C 227.8125 379.6875 303.75 303.75 405 303.75 C 506.25 303.75 582.1875 379.6875 582.1875 480.9375 L 582.1875 531.5625 L 227.8125 531.5625 Z M 227.8125 480.9375 "/><path style=" stroke:none;fill-rule:nonzero;fill:#ffffff;fill-opacity:1;" d="M 392.34375 278.4375 L 417.65625 278.4375 C 418.484375 278.4375 419.3125 278.476562 420.136719 278.558594 C 420.960938 278.640625 421.78125 278.761719 422.59375 278.925781 C 423.40625 279.085938 424.210938 279.285156 425.003906 279.527344 C 425.796875 279.769531 426.578125 280.046875 427.34375 280.363281 C 428.109375 280.679688 428.855469 281.035156 429.589844 281.425781 C 430.320312 281.816406 431.03125 282.242188 431.71875 282.703125 C 432.410156 283.164062 433.074219 283.65625 433.714844 284.183594 C 434.355469 284.710938 434.96875 285.265625 435.554688 285.851562 C 436.140625 286.4375 436.695312 287.050781 437.222656 287.691406 C 437.75 288.332031 438.242188 288.996094 438.703125 289.6875 C 439.164062 290.375 439.589844 291.085938 439.980469 291.816406 C 440.371094 292.550781 440.722656 293.296875 441.042969 294.0625 C 441.359375 294.828125 441.636719 295.609375 441.878906 296.402344 C 442.121094 297.195312 442.320312 298 442.480469 298.8125 C 442.644531 299.625 442.765625 300.445312 442.847656 301.269531 C 442.929688 302.09375 442.96875 302.921875 442.96875 303.75 L 442.96875 329.0625 C 442.96875 329.890625 442.929688 330.71875 442.847656 331.542969 C 442.765625 332.367188 442.644531 333.1875 442.480469 334 C 442.320312 334.8125 442.121094 335.617188 441.878906 336.410156 C 441.636719 337.203125 441.359375 337.984375 441.042969 338.75 C 440.722656 339.515625 440.371094 340.261719 439.980469 340.996094 C 439.589844 341.726562 439.164062 342.4375 438.703125 343.125 C 438.242188 343.816406 437.75 344.480469 437.222656 345.121094 C 436.695312 345.761719 436.140625 346.375 435.554688 346.960938 C 434.96875 347.546875 434.355469 348.101562 433.714844 348.628906 C 433.074219 349.15625 432.410156 349.648438 431.71875 350.109375 C 431.03125 350.570312 430.320312 350.996094 429.589844 351.386719 C 428.855469 351.777344 428.109375 352.132812 427.34375 352.449219 C 426.578125 352.765625 425.796875 353.042969 425.003906 353.285156 C 424.210938 353.527344 423.40625 353.726562 422.59375 353.886719 C 421.78125 354.050781 420.960938 354.171875 420.136719 354.253906 C 419.3125 354.335938 418.484375 354.375 417.65625 354.375 L 392.34375 354.375 C 391.515625 354.375 390.6875 354.335938 389.863281 354.253906 C 389.039062 354.171875 388.21875 354.050781 387.40625 353.886719 C 386.59375 353.726562 385.789062 353.527344 384.996094 353.285156 C 384.203125 353.042969 383.421875 352.765625 382.65625 352.449219 C 381.890625 352.132812 381.144531 351.777344 380.410156 351.386719 C 379.679688 350.996094 378.96875 350.570312 378.28125 350.109375 C 377.589844 349.648438 376.925781 349.15625 376.285156 348.628906 C 375.644531 348.101562 375.03125 347.546875 374.445312 346.960938 C 373.859375 346.375 373.304688 345.761719 372.777344 345.121094 C 372.25 344.480469 371.757812 343.816406 371.296875 343.125 C 370.835938 342.4375 370.410156 341.726562 370.019531 340.996094 C 369.628906 340.261719 369.273438 339.515625 368.957031 338.75 C 368.640625 337.984375 368.363281 337.203125 368.121094 336.410156 C 367.878906 335.617188 367.679688 334.8125 367.515625 334 C 367.355469 333.1875 367.234375 332.367188 367.152344 331.542969 C 367.070312 330.71875 367.03125 329.890625 367.03125 329.0625 L 367.03125 303.75 C 367.03125 302.921875 367.070312 302.09375 367.152344 301.269531 C 367.234375 300.445312 367.355469 299.625 367.515625 298.8125 C 367.679688 298 367.878906 297.195312 368.121094 296.402344 C 368.363281 295.609375 368.640625 294.828125 368.957031 294.0625 C 369.273438 293.296875 369.628906 292.550781 370.019531 291.816406 C 370.410156 291.085938 370.835938 290.375 371.296875 289.6875 C 371.757812 288.996094 372.25 288.332031 372.777344 287.691406 C 373.304688 287.050781 373.859375 286.4375 374.445312 285.851562 C 375.03125 285.265625 375.644531 284.710938 376.285156 284.183594 C 376.925781 283.65625 377.589844 283.164062 378.28125 282.703125 C 378.96875 282.242188 379.679688 281.816406 380.410156 281.425781 C 381.144531 281.035156 381.890625 280.679688 382.65625 280.363281 C 383.421875 280.046875 384.203125 279.769531 384.996094 279.527344 C 385.789062 279.285156 386.59375 279.085938 387.40625 278.925781 C 388.21875 278.761719 389.039062 278.640625 389.863281 278.558594 C 390.6875 278.476562 391.515625 278.4375 392.34375 278.4375 Z M 392.34375 278.4375 "/><path style="fill:none;stroke-width:2;stroke-linecap:butt;stroke-linejoin:miter;stroke:#fbc02d;stroke-opacity:1;stroke-miterlimit:4;" d="M 22.000001 36 L 42.000002 36 " transform="matrix(12.656249,0,0,12.656249,0.0000035,0.00002)"/></g></svg>