<svg xmlns="http://www.w3.org/2000/svg" xmlns:xlink="http://www.w3.org/1999/xlink" width="1080" zoomAndPan="magnify" viewBox="0 0 810 809.999993" height="1080" preserveAspectRatio="xMidYMid meet" version="1.2"><g id="2f46d03adb"><rect x="0" width="810" y="0" height="809.999993" style="fill:#ffffff;fill-opacity:1;stroke:none;"/><rect x="0" width="810" y="0" height="809.999993" style="fill:#ffffff;fill-opacity:1;stroke:none;"/><path style=" stroke:none;fill-rule:nonzero;fill:#d9d9d9;fill-opacity:1;" d="M 784.6875 405 C 784.6875 411.214844 784.535156 417.425781 784.230469 423.628906 C 783.925781 429.835938 783.46875 436.03125 782.859375 442.214844 C 782.25 448.398438 781.488281 454.566406 780.578125 460.710938 C 779.667969 466.859375 778.605469 472.980469 777.390625 479.074219 C 776.179688 485.167969 774.820312 491.230469 773.308594 497.257812 C 771.800781 503.285156 770.140625 509.269531 768.339844 515.21875 C 766.535156 521.164062 764.585938 527.0625 762.492188 532.914062 C 760.398438 538.761719 758.164062 544.558594 755.785156 550.300781 C 753.40625 556.039062 750.890625 561.71875 748.234375 567.335938 C 745.578125 572.953125 742.785156 578.503906 739.855469 583.984375 C 736.925781 589.464844 733.863281 594.867188 730.667969 600.199219 C 727.472656 605.527344 724.152344 610.777344 720.699219 615.941406 C 717.246094 621.109375 713.667969 626.1875 709.96875 631.179688 C 706.265625 636.171875 702.445312 641.066406 698.503906 645.871094 C 694.558594 650.675781 690.503906 655.378906 686.328125 659.984375 C 682.15625 664.585938 677.875 669.085938 673.480469 673.480469 C 669.085938 677.875 664.585938 682.15625 659.984375 686.328125 C 655.378906 690.503906 650.675781 694.558594 645.871094 698.503906 C 641.066406 702.445312 636.171875 706.265625 631.179688 709.96875 C 626.1875 713.667969 621.109375 717.246094 615.941406 720.699219 C 610.777344 724.152344 605.527344 727.472656 600.199219 730.667969 C 594.867188 733.863281 589.464844 736.925781 583.984375 739.855469 C 578.503906 742.785156 572.953125 745.578125 567.335938 748.234375 C 561.71875 750.890625 556.039062 753.40625 550.300781 755.785156 C 544.558594 758.164062 538.761719 760.398438 532.914062 762.492188 C 527.0625 764.585938 521.164062 766.535156 515.21875 768.339844 C 509.269531 770.140625 503.285156 771.796875 497.257812 773.308594 C 491.230469 774.820312 485.167969 776.179688 479.074219 777.390625 C 472.980469 778.605469 466.859375 779.667969 460.710938 780.578125 C 454.566406 781.488281 448.398438 782.25 442.214844 782.859375 C 436.03125 783.46875 429.835938 783.925781 423.628906 784.230469 C 417.425781 784.535156 411.214844 784.6875 405 784.6875 C 398.785156 784.6875 392.574219 784.535156 386.371094 784.230469 C 380.164062 783.925781 373.96875 783.46875 367.785156 782.859375 C 361.601562 782.25 355.433594 781.488281 349.289062 780.578125 C 343.140625 779.667969 337.019531 778.605469 330.925781 777.390625 C 324.832031 776.179688 318.769531 774.820312 312.742188 773.308594 C 306.714844 771.800781 300.730469 770.140625 294.78125 768.339844 C 288.835938 766.535156 282.9375 764.585938 277.085938 762.492188 C 271.238281 760.398438 265.441406 758.164062 259.699219 755.785156 C 253.957031 753.40625 248.28125 750.890625 242.664062 748.234375 C 237.046875 745.578125 231.496094 742.785156 226.015625 739.855469 C 220.535156 736.925781 215.132812 733.863281 209.800781 730.667969 C 204.472656 727.472656 199.222656 724.152344 194.058594 720.699219 C 188.890625 717.246094 183.8125 713.667969 178.820312 709.96875 C 173.828125 706.265625 168.933594 702.445312 164.128906 698.503906 C 159.324219 694.558594 154.621094 690.503906 150.015625 686.328125 C 145.414062 682.15625 140.914062 677.875 136.519531 673.480469 C 132.125 669.085938 127.84375 664.585938 123.671875 659.984375 C 119.496094 655.378906 115.441406 650.675781 111.496094 645.871094 C 107.554688 641.066406 103.734375 636.171875 100.03125 631.179688 C 96.332031 626.1875 92.753906 621.109375 89.300781 615.941406 C 85.847656 610.777344 82.527344 605.527344 79.332031 600.199219 C 76.136719 594.867188 73.074219 589.464844 70.144531 583.984375 C 67.214844 578.503906 64.421875 572.953125 61.765625 567.335938 C 59.109375 561.71875 56.59375 556.039062 54.214844 550.300781 C 51.835938 544.558594 49.601562 538.761719 47.507812 532.914062 C 45.414062 527.0625 43.464844 521.164062 41.660156 515.21875 C 39.859375 509.269531 38.199219 503.285156 36.691406 497.257812 C 35.179688 491.230469 33.820312 485.167969 32.609375 479.074219 C 31.394531 472.980469 30.332031 466.859375 29.421875 460.710938 C 28.511719 454.566406 27.75 448.398438 27.140625 442.214844 C 26.53125 436.03125 26.074219 429.835938 25.769531 423.628906 C 25.464844 417.425781 25.3125 411.214844 25.3125 405 C 25.3125 398.785156 25.464844 392.574219 25.769531 386.371094 C 26.074219 380.164062 26.53125 373.96875 27.140625 367.785156 C 27.75 361.601562 28.511719 355.433594 29.421875 349.289062 C 30.332031 343.140625 31.394531 337.019531 32.609375 330.925781 C 33.820312 324.832031 35.179688 318.769531 36.691406 312.742188 C 38.199219 306.714844 39.859375 300.730469 41.660156 294.78125 C 43.464844 288.835938 45.414062 282.9375 47.507812 277.085938 C 49.601562 271.238281 51.835938 265.441406 54.214844 259.699219 C 56.59375 253.960938 59.109375 248.28125 61.765625 242.664062 C 64.421875 237.046875 67.214844 231.496094 70.144531 226.015625 C 73.074219 220.535156 76.136719 215.132812 79.332031 209.800781 C 82.527344 204.472656 85.847656 199.222656 89.300781 194.058594 C 92.753906 188.890625 96.332031 183.8125 100.03125 178.820312 C 103.734375 173.828125 107.554688 168.933594 111.496094 164.128906 C 115.441406 159.324219 119.496094 154.621094 123.671875 150.015625 C 127.84375 145.414062 132.125 140.914062 136.519531 136.519531 C 140.914062 132.125 145.414062 127.84375 150.015625 123.671875 C 154.621094 119.496094 159.324219 115.441406 164.128906 111.496094 C 168.933594 107.554688 173.828125 103.734375 178.820312 100.03125 C 183.8125 96.332031 188.890625 92.753906 194.058594 89.300781 C 199.222656 85.847656 204.472656 82.527344 209.800781 79.332031 C 215.132812 76.136719 220.535156 73.074219 226.015625 70.144531 C 231.496094 67.214844 237.046875 64.421875 242.664062 61.765625 C 248.28125 59.109375 253.960938 56.59375 259.699219 54.214844 C 265.441406 51.835938 271.238281 49.601562 277.085938 47.507812 C 282.9375 45.414062 288.835938 43.464844 294.78125 41.660156 C 300.730469 39.859375 306.714844 38.199219 312.742188 36.691406 C 318.769531 35.179688 324.832031 33.820312 330.925781 32.609375 C 337.019531 31.394531 343.140625 30.332031 349.289062 29.421875 C 355.433594 28.511719 361.601562 27.75 367.785156 27.140625 C 373.96875 26.53125 380.164062 26.074219 386.371094 25.769531 C 392.574219 25.464844 398.785156 25.3125 405 25.3125 C 411.214844 25.3125 417.425781 25.464844 423.628906 25.769531 C 429.835938 26.074219 436.03125 26.53125 442.214844 27.140625 C 448.398438 27.75 454.566406 28.511719 460.710938 29.421875 C 466.859375 30.332031 472.980469 31.394531 479.074219 32.609375 C 485.167969 33.820312 491.230469 35.179688 497.257812 36.691406 C 503.285156 38.199219 509.269531 39.859375 515.21875 41.660156 C 521.164062 43.464844 527.0625 45.414062 532.914062 47.507812 C 538.761719 49.601562 544.558594 51.835938 550.300781 54.214844 C 556.039062 56.59375 561.71875 59.109375 567.335938 61.765625 C 572.953125 64.421875 578.503906 67.214844 583.984375 70.144531 C 589.464844 73.074219 594.867188 76.136719 600.199219 79.332031 C 605.527344 82.527344 610.777344 85.847656 615.941406 89.300781 C 621.109375 92.753906 626.1875 96.332031 631.179688 100.03125 C 636.171875 103.734375 641.066406 107.554688 645.871094 111.496094 C 650.675781 115.441406 655.378906 119.496094 659.984375 123.671875 C 664.585938 127.84375 669.085938 132.125 673.480469 136.519531 C 677.875 140.914062 682.15625 145.414062 686.328125 150.015625 C 690.503906 154.621094 694.558594 159.324219 698.503906 164.128906 C 702.445312 168.933594 706.265625 173.828125 709.96875 178.820312 C 713.667969 183.8125 717.246094 188.890625 720.699219 194.058594 C 724.152344 199.222656 727.472656 204.472656 730.667969 209.800781 C 733.863281 215.132812 736.925781 220.535156 739.855469 226.015625 C 742.785156 231.496094 745.578125 237.046875 748.234375 242.664062 C 750.890625 248.28125 753.40625 253.960938 755.785156 259.699219 C 758.164062 265.441406 760.398438 271.238281 762.492188 277.085938 C 764.585938 282.9375 766.535156 288.835938 768.339844 294.78125 C 770.140625 300.730469 771.796875 306.714844 773.308594 312.742188 C 774.820312 318.769531 776.179688 324.832031 777.390625 330.925781 C 778.605469 337.019531 779.667969 343.140625 780.578125 349.289062 C 781.488281 355.433594 782.25 361.601562 782.859375 367.785156 C 783.46875 373.96875 783.925781 380.164062 784.230469 386.371094 C 784.535156 392.574219 784.6875 398.785156 784.6875 405 Z M 784.6875 405 "/><path style=" stroke:none;fill-rule:nonzero;fill:#ffffff;fill-opacity:1;" d="M 227.8125 480.9375 L 582.1875 480.9375 C 583.015625 480.9375 583.84375 480.976562 584.667969 481.058594 C 585.492188 481.140625 586.3125 481.261719 587.125 481.425781 C 587.9375 481.585938 588.742188 481.785156 589.535156 482.027344 C 590.328125 482.269531 591.109375 482.546875 591.875 482.863281 C 592.640625 483.179688 593.386719 483.535156 594.121094 483.925781 C 594.851562 484.316406 595.5625 484.742188 596.25 485.203125 C 596.941406 485.664062 597.605469 486.15625 598.246094 486.683594 C 598.886719 487.210938 599.5 487.765625 600.085938 488.351562 C 600.671875 488.9375 601.226562 489.550781 601.753906 490.191406 C 602.28125 490.832031 602.773438 491.496094 603.234375 492.1875 C 603.695312 492.875 604.121094 493.585938 604.511719 494.316406 C 604.902344 495.050781 605.257812 495.796875 605.574219 496.5625 C 605.890625 497.328125 606.167969 498.109375 606.410156 498.902344 C 606.652344 499.695312 606.851562 500.5 607.011719 501.3125 C 607.175781 502.125 607.296875 502.945312 607.378906 503.769531 C 607.460938 504.59375 607.5 505.421875 607.5 506.25 L 607.5 531.5625 C 607.5 532.390625 607.460938 533.21875 607.378906 534.042969 C 607.296875 534.867188 607.175781 535.6875 607.011719 536.5 C 606.851562 537.3125 606.652344 538.117188 606.410156 538.910156 C 606.167969 539.703125 605.890625 540.484375 605.574219 541.25 C 605.257812 542.015625 604.902344 542.761719 604.511719 543.496094 C 604.121094 544.226562 603.695312 544.9375 603.234375 545.625 C 602.773438 546.316406 602.28125 546.980469 601.753906 547.621094 C 601.226562 548.261719 600.671875 548.875 600.085938 549.460938 C 599.5 550.046875 598.886719 550.601562 598.246094 551.128906 C 597.605469 551.65625 596.941406 552.148438 596.25 552.609375 C 595.5625 553.070312 594.851562 553.496094 594.121094 553.886719 C 593.386719 554.277344 592.640625 554.632812 591.875 554.949219 C 591.109375 555.265625 590.328125 555.542969 589.535156 555.785156 C 588.742188 556.027344 587.9375 556.226562 587.125 556.386719 C 586.3125 556.550781 585.492188 556.671875 584.667969 556.753906 C 583.84375 556.835938 583.015625 556.875 582.1875 556.875 L 227.8125 556.875 C 226.984375 556.875 226.15625 556.835938 225.332031 556.753906 C 224.507812 556.671875 223.6875 556.550781 222.875 556.386719 C 222.0625 556.226562 221.257812 556.027344 220.464844 555.785156 C 219.671875 555.542969 218.890625 555.265625 218.125 554.949219 C 217.359375 554.632812 216.613281 554.277344 215.878906 553.886719 C 215.148438 553.496094 214.4375 553.070312 213.75 552.609375 C 213.058594 552.148438 212.394531 551.65625 211.753906 551.128906 C 211.113281 550.601562 210.5 550.046875 209.914062 549.460938 C 209.328125 548.875 208.773438 548.261719 208.246094 547.621094 C 207.71875 546.980469 207.226562 546.316406 206.765625 545.625 C 206.304688 544.9375 205.878906 544.226562 205.488281 543.496094 C 205.097656 542.761719 204.742188 542.015625 204.425781 541.25 C 204.109375 540.484375 203.832031 539.703125 203.589844 538.910156 C 203.347656 538.117188 203.148438 537.3125 202.988281 536.5 C 202.824219 535.6875 202.703125 534.867188 202.621094 534.042969 C 202.539062 533.21875 202.5 532.390625 202.5 531.5625 L 202.5 506.25 C 202.5 505.421875 202.539062 504.59375 202.621094 503.769531 C 202.703125 502.945312 202.824219 502.125 202.988281 501.3125 C 203.148438 500.5 203.347656 499.695312 203.589844 498.902344 C 203.832031 498.109375 204.109375 497.328125 204.425781 496.5625 C 204.742188 495.796875 205.097656 495.050781 205.488281 494.316406 C 205.878906 493.585938 206.304688 492.875 206.765625 492.1875 C 207.226562 491.496094 207.71875 490.832031 208.246094 490.191406 C 208.773438 489.550781 209.328125 488.9375 209.914062 488.351562 C 210.5 487.765625 211.113281 487.210938 211.753906 486.683594 C 212.394531 486.15625 213.058594 485.664062 213.75 485.203125 C 214.4375 484.742188 215.148438 484.316406 215.878906 483.925781 C 216.613281 483.535156 217.359375 483.179688 218.125 482.863281 C 218.890625 482.546875 219.671875 482.269531 220.464844 482.027344 C 221.257812 481.785156 222.0625 481.585938 222.875 481.425781 C 223.6875 481.261719 224.507812 481.140625 225.332031 481.058594 C 226.15625 480.976562 226.984375 480.9375 227.8125 480.9375 Z M 227.8125 480.9375 "/><path style=" stroke:none;fill-rule:nonzero;fill:#d9d9d9;fill-opacity:1;" d="M 259.453125 493.59375 L 265.78125 493.59375 C 266.195312 493.59375 266.609375 493.632812 267.015625 493.714844 C 267.421875 493.796875 267.820312 493.917969 268.203125 494.074219 C 268.585938 494.234375 268.953125 494.429688 269.296875 494.660156 C 269.640625 494.890625 269.960938 495.152344 270.257812 495.445312 C 270.550781 495.742188 270.8125 496.0625 271.042969 496.40625 C 271.273438 496.75 271.46875 497.117188 271.628906 497.5 C 271.785156 497.882812 271.90625 498.28125 271.988281 498.6875 C 272.070312 499.09375 272.109375 499.507812 272.109375 499.921875 L 272.109375 537.890625 C 272.109375 538.304688 272.070312 538.71875 271.988281 539.125 C 271.90625 539.53125 271.785156 539.929688 271.628906 540.3125 C 271.46875 540.695312 271.273438 541.0625 271.042969 541.40625 C 270.8125 541.75 270.550781 542.070312 270.257812 542.367188 C 269.960938 542.660156 269.640625 542.921875 269.296875 543.152344 C 268.953125 543.382812 268.585938 543.578125 268.203125 543.738281 C 267.820312 543.894531 267.421875 544.015625 267.015625 544.097656 C 266.609375 544.179688 266.195312 544.21875 265.78125 544.21875 L 259.453125 544.21875 C 259.039062 544.21875 258.625 544.179688 258.21875 544.097656 C 257.8125 544.015625 257.414062 543.894531 257.03125 543.738281 C 256.648438 543.578125 256.28125 543.382812 255.9375 543.152344 C 255.59375 542.921875 255.273438 542.660156 254.976562 542.367188 C 254.683594 542.070312 254.421875 541.75 254.191406 541.40625 C 253.960938 541.0625 253.765625 540.695312 253.605469 540.3125 C 253.449219 539.929688 253.328125 539.53125 253.246094 539.125 C 253.164062 538.71875 253.125 538.304688 253.125 537.890625 L 253.125 499.921875 C 253.125 499.507812 253.164062 499.09375 253.246094 498.6875 C 253.328125 498.28125 253.449219 497.882812 253.605469 497.5 C 253.765625 497.117188 253.960938 496.75 254.191406 496.40625 C 254.421875 496.0625 254.683594 495.742188 254.976562 495.445312 C 255.273438 495.152344 255.59375 494.890625 255.9375 494.660156 C 256.28125 494.429688 256.648438 494.234375 257.03125 494.074219 C 257.414062 493.917969 257.8125 493.796875 258.21875 493.714844 C 258.625 493.632812 259.039062 493.59375 259.453125 493.59375 Z M 259.453125 493.59375 "/><path style=" stroke:none;fill-rule:nonzero;fill:#d9d9d9;fill-opacity:1;" d="M 310.078125 493.59375 L 316.40625 493.59375 C 316.820312 493.59375 317.234375 493.632812 317.640625 493.714844 C 318.046875 493.796875 318.445312 493.917969 318.828125 494.074219 C 319.210938 494.234375 319.578125 494.429688 319.921875 494.660156 C 320.265625 494.890625 320.585938 495.152344 320.882812 495.445312 C 321.175781 495.742188 321.4375 496.0625 321.667969 496.40625 C 321.898438 496.75 322.09375 497.117188 322.253906 497.5 C 322.410156 497.882812 322.53125 498.28125 322.613281 498.6875 C 322.695312 499.09375 322.734375 499.507812 322.734375 499.921875 L 322.734375 537.890625 C 322.734375 538.304688 322.695312 538.71875 322.613281 539.125 C 322.53125 539.53125 322.410156 539.929688 322.253906 540.3125 C 322.09375 540.695312 321.898438 541.0625 321.667969 541.40625 C 321.4375 541.75 321.175781 542.070312 320.882812 542.367188 C 320.585938 542.660156 320.265625 542.921875 319.921875 543.152344 C 319.578125 543.382812 319.210938 543.578125 318.828125 543.738281 C 318.445312 543.894531 318.046875 544.015625 317.640625 544.097656 C 317.234375 544.179688 316.820312 544.21875 316.40625 544.21875 L 310.078125 544.21875 C 309.664062 544.21875 309.25 544.179688 308.84375 544.097656 C 308.4375 544.015625 308.039062 543.894531 307.65625 543.738281 C 307.273438 543.578125 306.90625 543.382812 306.5625 543.152344 C 306.21875 542.921875 305.898438 542.660156 305.601562 542.367188 C 305.308594 542.070312 305.046875 541.75 304.816406 541.40625 C 304.585938 541.0625 304.390625 540.695312 304.230469 540.3125 C 304.074219 539.929688 303.953125 539.53125 303.871094 539.125 C 303.789062 538.71875 303.75 538.304688 303.75 537.890625 L 303.75 499.921875 C 303.75 499.507812 303.789062 499.09375 303.871094 498.6875 C 303.953125 498.28125 304.074219 497.882812 304.230469 497.5 C 304.390625 497.117188 304.585938 496.75 304.816406 496.40625 C 305.046875 496.0625 305.308594 495.742188 305.601562 495.445312 C 305.898438 495.152344 306.21875 494.890625 306.5625 494.660156 C 306.90625 494.429688 307.273438 494.234375 307.65625 494.074219 C 308.039062 493.917969 308.4375 493.796875 308.84375 493.714844 C 309.25 493.632812 309.664062 493.59375 310.078125 493.59375 Z M 310.078125 493.59375 "/><path style=" stroke:none;fill-rule:nonzero;fill:#d9d9d9;fill-opacity:1;" d="M 360.703125 493.59375 L 367.03125 493.59375 C 367.445312 493.59375 367.859375 493.632812 368.265625 493.714844 C 368.671875 493.796875 369.070312 493.917969 369.453125 494.074219 C 369.835938 494.234375 370.203125 494.429688 370.546875 494.660156 C 370.890625 494.890625 371.210938 495.152344 371.507812 495.445312 C 371.800781 495.742188 372.0625 496.0625 372.292969 496.40625 C 372.523438 496.75 372.71875 497.117188 372.878906 497.5 C 373.035156 497.882812 373.15625 498.28125 373.238281 498.6875 C 373.320312 499.09375 373.359375 499.507812 373.359375 499.921875 L 373.359375 537.890625 C 373.359375 538.304688 373.320312 538.71875 373.238281 539.125 C 373.15625 539.53125 373.035156 539.929688 372.878906 540.3125 C 372.71875 540.695312 372.523438 541.0625 372.292969 541.40625 C 372.0625 541.75 371.800781 542.070312 371.507812 542.367188 C 371.210938 542.660156 370.890625 542.921875 370.546875 543.152344 C 370.203125 543.382812 369.835938 543.578125 369.453125 543.738281 C 369.070312 543.894531 368.671875 544.015625 368.265625 544.097656 C 367.859375 544.179688 367.445312 544.21875 367.03125 544.21875 L 360.703125 544.21875 C 360.289062 544.21875 359.875 544.179688 359.46875 544.097656 C 359.0625 544.015625 358.664062 543.894531 358.28125 543.738281 C 357.898438 543.578125 357.53125 543.382812 357.1875 543.152344 C 356.84375 542.921875 356.523438 542.660156 356.226562 542.367188 C 355.933594 542.070312 355.671875 541.75 355.441406 541.40625 C 355.210938 541.0625 355.015625 540.695312 354.855469 540.3125 C 354.699219 539.929688 354.578125 539.53125 354.496094 539.125 C 354.414062 538.71875 354.375 538.304688 354.375 537.890625 L 354.375 499.921875 C 354.375 499.507812 354.414062 499.09375 354.496094 498.6875 C 354.578125 498.28125 354.699219 497.882812 354.855469 497.5 C 355.015625 497.117188 355.210938 496.75 355.441406 496.40625 C 355.671875 496.0625 355.933594 495.742188 356.226562 495.445312 C 356.523438 495.152344 356.84375 494.890625 357.1875 494.660156 C 357.53125 494.429688 357.898438 494.234375 358.28125 494.074219 C 358.664062 493.917969 359.0625 493.796875 359.46875 493.714844 C 359.875 493.632812 360.289062 493.59375 360.703125 493.59375 Z M 360.703125 493.59375 "/><path style=" stroke:none;fill-rule:nonzero;fill:#d9d9d9;fill-opacity:1;" d="M 411.328125 493.59375 L 417.65625 493.59375 C 418.070312 493.59375 418.484375 493.632812 418.890625 493.714844 C 419.296875 493.796875 419.695312 493.917969 420.078125 494.074219 C 420.460938 494.234375 420.828125 494.429688 421.171875 494.660156 C 421.515625 494.890625 421.835938 495.152344 422.128906 495.445312 C 422.425781 495.742188 422.6875 496.0625 422.917969 496.40625 C 423.148438 496.75 423.34375 497.117188 423.503906 497.5 C 423.660156 497.882812 423.78125 498.28125 423.863281 498.6875 C 423.945312 499.09375 423.984375 499.507812 423.984375 499.921875 L 423.984375 537.890625 C 423.984375 538.304688 423.945312 538.71875 423.863281 539.125 C 423.78125 539.53125 423.660156 539.929688 423.503906 540.3125 C 423.34375 540.695312 423.148438 541.0625 422.917969 541.40625 C 422.6875 541.75 422.425781 542.070312 422.128906 542.367188 C 421.835938 542.660156 421.515625 542.921875 421.171875 543.152344 C 420.828125 543.382812 420.460938 543.578125 420.078125 543.738281 C 419.695312 543.894531 419.296875 544.015625 418.890625 544.097656 C 418.484375 544.179688 418.070312 544.21875 417.65625 544.21875 L 411.328125 544.21875 C 410.914062 544.21875 410.5 544.179688 410.09375 544.097656 C 409.6875 544.015625 409.289062 543.894531 408.90625 543.738281 C 408.523438 543.578125 408.15625 543.382812 407.8125 543.152344 C 407.46875 542.921875 407.148438 542.660156 406.851562 542.367188 C 406.558594 542.070312 406.296875 541.75 406.066406 541.40625 C 405.835938 541.0625 405.640625 540.695312 405.480469 540.3125 C 405.324219 539.929688 405.203125 539.53125 405.121094 539.125 C 405.039062 538.71875 405 538.304688 405 537.890625 L 405 499.921875 C 405 499.507812 405.039062 499.09375 405.121094 498.6875 C 405.203125 498.28125 405.324219 497.882812 405.480469 497.5 C 405.640625 497.117188 405.835938 496.75 406.066406 496.40625 C 406.296875 496.0625 406.558594 495.742188 406.851562 495.445312 C 407.148438 495.152344 407.46875 494.890625 407.8125 494.660156 C 408.15625 494.429688 408.523438 494.234375 408.90625 494.074219 C 409.289062 493.917969 409.6875 493.796875 410.09375 493.714844 C 410.5 493.632812 410.914062 493.59375 411.328125 493.59375 Z M 411.328125 493.59375 "/><path style=" stroke:none;fill-rule:nonzero;fill:#d9d9d9;fill-opacity:1;" d="M 461.953125 493.59375 L 468.28125 493.59375 C 468.695312 493.59375 469.109375 493.632812 469.515625 493.714844 C 469.921875 493.796875 470.320312 493.917969 470.703125 494.074219 C 471.085938 494.234375 471.453125 494.429688 471.796875 494.660156 C 472.140625 494.890625 472.460938 495.152344 472.753906 495.445312 C 473.050781 495.742188 473.3125 496.0625 473.542969 496.40625 C 473.773438 496.75 473.96875 497.117188 474.128906 497.5 C 474.285156 497.882812 474.40625 498.28125 474.488281 498.6875 C 474.570312 499.09375 474.609375 499.507812 474.609375 499.921875 L 474.609375 537.890625 C 474.609375 538.304688 474.570312 538.71875 474.488281 539.125 C 474.40625 539.53125 474.285156 539.929688 474.128906 540.3125 C 473.96875 540.695312 473.773438 541.0625 473.542969 541.40625 C 473.3125 541.75 473.050781 542.070312 472.753906 542.367188 C 472.460938 542.660156 472.140625 542.921875 471.796875 543.152344 C 471.453125 543.382812 471.085938 543.578125 470.703125 543.738281 C 470.320312 543.894531 469.921875 544.015625 469.515625 544.097656 C 469.109375 544.179688 468.695312 544.21875 468.28125 544.21875 L 461.953125 544.21875 C 461.539062 544.21875 461.125 544.179688 460.71875 544.097656 C 460.3125 544.015625 459.914062 543.894531 459.53125 543.738281 C 459.148438 543.578125 458.78125 543.382812 458.4375 543.152344 C 458.09375 542.921875 457.773438 542.660156 457.476562 542.367188 C 457.183594 542.070312 456.921875 541.75 456.691406 541.40625 C 456.460938 541.0625 456.265625 540.695312 456.105469 540.3125 C 455.949219 539.929688 455.828125 539.53125 455.746094 539.125 C 455.664062 538.71875 455.625 538.304688 455.625 537.890625 L 455.625 499.921875 C 455.625 499.507812 455.664062 499.09375 455.746094 498.6875 C 455.828125 498.28125 455.949219 497.882812 456.105469 497.5 C 456.265625 497.117188 456.460938 496.75 456.691406 496.40625 C 456.921875 496.0625 457.183594 495.742188 457.476562 495.445312 C 457.773438 495.152344 458.09375 494.890625 458.4375 494.660156 C 458.78125 494.429688 459.148438 494.234375 459.53125 494.074219 C 459.914062 493.917969 460.3125 493.796875 460.71875 493.714844 C 461.125 493.632812 461.539062 493.59375 461.953125 493.59375 Z M 461.953125 493.59375 "/><path style=" stroke:none;fill-rule:nonzero;fill:#d9d9d9;fill-opacity:1;" d="M 512.578125 493.59375 L 518.90625 493.59375 C 519.320312 493.59375 519.734375 493.632812 520.140625 493.714844 C 520.546875 493.796875 520.945312 493.917969 521.328125 494.074219 C 521.710938 494.234375 522.078125 494.429688 522.421875 494.660156 C 522.765625 494.890625 523.085938 495.152344 523.378906 495.445312 C 523.675781 495.742188 523.9375 496.0625 524.167969 496.40625 C 524.398438 496.75 524.59375 497.117188 524.753906 497.5 C 524.910156 497.882812 525.03125 498.28125 525.113281 498.6875 C 525.195312 499.09375 525.234375 499.507812 525.234375 499.921875 L 525.234375 537.890625 C 525.234375 538.304688 525.195312 538.71875 525.113281 539.125 C 525.03125 539.53125 524.910156 539.929688 524.753906 540.3125 C 524.59375 540.695312 524.398438 541.0625 524.167969 541.40625 C 523.9375 541.75 523.675781 542.070312 523.378906 542.367188 C 523.085938 542.660156 522.765625 542.921875 522.421875 543.152344 C 522.078125 543.382812 521.710938 543.578125 521.328125 543.738281 C 520.945312 543.894531 520.546875 544.015625 520.140625 544.097656 C 519.734375 544.179688 519.320312 544.21875 518.90625 544.21875 L 512.578125 544.21875 C 512.164062 544.21875 511.75 544.179688 511.34375 544.097656 C 510.9375 544.015625 510.539062 543.894531 510.15625 543.738281 C 509.773438 543.578125 509.40625 543.382812 509.0625 543.152344 C 508.71875 542.921875 508.398438 542.660156 508.101562 542.367188 C 507.808594 542.070312 507.546875 541.75 507.316406 541.40625 C 507.085938 541.0625 506.890625 540.695312 506.730469 540.3125 C 506.574219 539.929688 506.453125 539.53125 506.371094 539.125 C 506.289062 538.71875 506.25 538.304688 506.25 537.890625 L 506.25 499.921875 C 506.25 499.507812 506.289062 499.09375 506.371094 498.6875 C 506.453125 498.28125 506.574219 497.882812 506.730469 497.5 C 506.890625 497.117188 507.085938 496.75 507.316406 496.40625 C 507.546875 496.0625 507.808594 495.742188 508.101562 495.445312 C 508.398438 495.152344 508.71875 494.890625 509.0625 494.660156 C 509.40625 494.429688 509.773438 494.234375 510.15625 494.074219 C 510.539062 493.917969 510.9375 493.796875 511.34375 493.714844 C 511.75 493.632812 512.164062 493.59375 512.578125 493.59375 Z M 512.578125 493.59375 "/><path style=" stroke:none;fill-rule:nonzero;fill:#ffffff;fill-opacity:1;" d="M 278.4375 303.75 L 329.0625 253.125 L 531.5625 455.625 L 480.9375 506.25 L 303.75 480.9375 Z M 278.4375 303.75 "/><path style=" stroke:none;fill-rule:nonzero;fill:#ffffff;fill-opacity:1;" d="M 531.5625 430.3125 L 556.875 405 L 582.1875 430.3125 L 556.875 455.625 Z M 531.5625 430.3125 "/></g></svg>