<svg xmlns="http://www.w3.org/2000/svg" xmlns:xlink="http://www.w3.org/1999/xlink" width="1080" zoomAndPan="magnify" viewBox="0 0 810 809.999993" height="1080" preserveAspectRatio="xMidYMid meet" version="1.2"><g id="198c4b83a5"><rect x="0" width="810" y="0" height="809.999993" style="fill:#ffffff;fill-opacity:1;stroke:none;"/><rect x="0" width="810" y="0" height="809.999993" style="fill:#ffffff;fill-opacity:1;stroke:none;"/><path style=" stroke:none;fill-rule:nonzero;fill:#d9d9d9;fill-opacity:1;" d="M 784.6875 405 C 784.6875 411.214844 784.535156 417.425781 784.230469 423.628906 C 783.925781 429.835938 783.46875 436.03125 782.859375 442.214844 C 782.25 448.398438 781.488281 454.566406 780.578125 460.710938 C 779.667969 466.859375 778.605469 472.980469 777.390625 479.074219 C 776.179688 485.167969 774.820312 491.230469 773.308594 497.257812 C 771.800781 503.285156 770.140625 509.269531 768.339844 515.21875 C 766.535156 521.164062 764.585938 527.0625 762.492188 532.914062 C 760.398438 538.761719 758.164062 544.558594 755.785156 550.300781 C 753.40625 556.039062 750.890625 561.71875 748.234375 567.335938 C 745.578125 572.953125 742.785156 578.503906 739.855469 583.984375 C 736.925781 589.464844 733.863281 594.867188 730.667969 600.199219 C 727.472656 605.527344 724.152344 610.777344 720.699219 615.941406 C 717.246094 621.109375 713.667969 626.1875 709.96875 631.179688 C 706.265625 636.171875 702.445312 641.066406 698.503906 645.871094 C 694.558594 650.675781 690.503906 655.378906 686.328125 659.984375 C 682.15625 664.585938 677.875 669.085938 673.480469 673.480469 C 669.085938 677.875 664.585938 682.15625 659.984375 686.328125 C 655.378906 690.503906 650.675781 694.558594 645.871094 698.503906 C 641.066406 702.445312 636.171875 706.265625 631.179688 709.96875 C 626.1875 713.667969 621.109375 717.246094 615.941406 720.699219 C 610.777344 724.152344 605.527344 727.472656 600.199219 730.667969 C 594.867188 733.863281 589.464844 736.925781 583.984375 739.855469 C 578.503906 742.785156 572.953125 745.578125 567.335938 748.234375 C 561.71875 750.890625 556.039062 753.40625 550.300781 755.785156 C 544.558594 758.164062 538.761719 760.398438 532.914062 762.492188 C 527.0625 764.585938 521.164062 766.535156 515.21875 768.339844 C 509.269531 770.140625 503.285156 771.796875 497.257812 773.308594 C 491.230469 774.820312 485.167969 776.179688 479.074219 777.390625 C 472.980469 778.605469 466.859375 779.667969 460.710938 780.578125 C 454.566406 781.488281 448.398438 782.25 442.214844 782.859375 C 436.03125 783.46875 429.835938 783.925781 423.628906 784.230469 C 417.425781 784.535156 411.214844 784.6875 405 784.6875 C 398.785156 784.6875 392.574219 784.535156 386.371094 784.230469 C 380.164062 783.925781 373.96875 783.46875 367.785156 782.859375 C 361.601562 782.25 355.433594 781.488281 349.289062 780.578125 C 343.140625 779.667969 337.019531 778.605469 330.925781 777.390625 C 324.832031 776.179688 318.769531 774.820312 312.742188 773.308594 C 306.714844 771.800781 300.730469 770.140625 294.78125 768.339844 C 288.835938 766.535156 282.9375 764.585938 277.085938 762.492188 C 271.238281 760.398438 265.441406 758.164062 259.699219 755.785156 C 253.957031 753.40625 248.28125 750.890625 242.664062 748.234375 C 237.046875 745.578125 231.496094 742.785156 226.015625 739.855469 C 220.535156 736.925781 215.132812 733.863281 209.800781 730.667969 C 204.472656 727.472656 199.222656 724.152344 194.058594 720.699219 C 188.890625 717.246094 183.8125 713.667969 178.820312 709.96875 C 173.828125 706.265625 168.933594 702.445312 164.128906 698.503906 C 159.324219 694.558594 154.621094 690.503906 150.015625 686.328125 C 145.414062 682.15625 140.914062 677.875 136.519531 673.480469 C 132.125 669.085938 127.84375 664.585938 123.671875 659.984375 C 119.496094 655.378906 115.441406 650.675781 111.496094 645.871094 C 107.554688 641.066406 103.734375 636.171875 100.03125 631.179688 C 96.332031 626.1875 92.753906 621.109375 89.300781 615.941406 C 85.847656 610.777344 82.527344 605.527344 79.332031 600.199219 C 76.136719 594.867188 73.074219 589.464844 70.144531 583.984375 C 67.214844 578.503906 64.421875 572.953125 61.765625 567.335938 C 59.109375 561.71875 56.59375 556.039062 54.214844 550.300781 C 51.835938 544.558594 49.601562 538.761719 47.507812 532.914062 C 45.414062 527.0625 43.464844 521.164062 41.660156 515.21875 C 39.859375 509.269531 38.199219 503.285156 36.691406 497.257812 C 35.179688 491.230469 33.820312 485.167969 32.609375 479.074219 C 31.394531 472.980469 30.332031 466.859375 29.421875 460.710938 C 28.511719 454.566406 27.75 448.398438 27.140625 442.214844 C 26.53125 436.03125 26.074219 429.835938 25.769531 423.628906 C 25.464844 417.425781 25.3125 411.214844 25.3125 405 C 25.3125 398.785156 25.464844 392.574219 25.769531 386.371094 C 26.074219 380.164062 26.53125 373.96875 27.140625 367.785156 C 27.75 361.601562 28.511719 355.433594 29.421875 349.289062 C 30.332031 343.140625 31.394531 337.019531 32.609375 330.925781 C 33.820312 324.832031 35.179688 318.769531 36.691406 312.742188 C 38.199219 306.714844 39.859375 300.730469 41.660156 294.78125 C 43.464844 288.835938 45.414062 282.9375 47.507812 277.085938 C 49.601562 271.238281 51.835938 265.441406 54.214844 259.699219 C 56.59375 253.960938 59.109375 248.28125 61.765625 242.664062 C 64.421875 237.046875 67.214844 231.496094 70.144531 226.015625 C 73.074219 220.535156 76.136719 215.132812 79.332031 209.800781 C 82.527344 204.472656 85.847656 199.222656 89.300781 194.058594 C 92.753906 188.890625 96.332031 183.8125 100.03125 178.820312 C 103.734375 173.828125 107.554688 168.933594 111.496094 164.128906 C 115.441406 159.324219 119.496094 154.621094 123.671875 150.015625 C 127.84375 145.414062 132.125 140.914062 136.519531 136.519531 C 140.914062 132.125 145.414062 127.84375 150.015625 123.671875 C 154.621094 119.496094 159.324219 115.441406 164.128906 111.496094 C 168.933594 107.554688 173.828125 103.734375 178.820312 100.03125 C 183.8125 96.332031 188.890625 92.753906 194.058594 89.300781 C 199.222656 85.847656 204.472656 82.527344 209.800781 79.332031 C 215.132812 76.136719 220.535156 73.074219 226.015625 70.144531 C 231.496094 67.214844 237.046875 64.421875 242.664062 61.765625 C 248.28125 59.109375 253.960938 56.59375 259.699219 54.214844 C 265.441406 51.835938 271.238281 49.601562 277.085938 47.507812 C 282.9375 45.414062 288.835938 43.464844 294.78125 41.660156 C 300.730469 39.859375 306.714844 38.199219 312.742188 36.691406 C 318.769531 35.179688 324.832031 33.820312 330.925781 32.609375 C 337.019531 31.394531 343.140625 30.332031 349.289062 29.421875 C 355.433594 28.511719 361.601562 27.75 367.785156 27.140625 C 373.96875 26.53125 380.164062 26.074219 386.371094 25.769531 C 392.574219 25.464844 398.785156 25.3125 405 25.3125 C 411.214844 25.3125 417.425781 25.464844 423.628906 25.769531 C 429.835938 26.074219 436.03125 26.53125 442.214844 27.140625 C 448.398438 27.75 454.566406 28.511719 460.710938 29.421875 C 466.859375 30.332031 472.980469 31.394531 479.074219 32.609375 C 485.167969 33.820312 491.230469 35.179688 497.257812 36.691406 C 503.285156 38.199219 509.269531 39.859375 515.21875 41.660156 C 521.164062 43.464844 527.0625 45.414062 532.914062 47.507812 C 538.761719 49.601562 544.558594 51.835938 550.300781 54.214844 C 556.039062 56.59375 561.71875 59.109375 567.335938 61.765625 C 572.953125 64.421875 578.503906 67.214844 583.984375 70.144531 C 589.464844 73.074219 594.867188 76.136719 600.199219 79.332031 C 605.527344 82.527344 610.777344 85.847656 615.941406 89.300781 C 621.109375 92.753906 626.1875 96.332031 631.179688 100.03125 C 636.171875 103.734375 641.066406 107.554688 645.871094 111.496094 C 650.675781 115.441406 655.378906 119.496094 659.984375 123.671875 C 664.585938 127.84375 669.085938 132.125 673.480469 136.519531 C 677.875 140.914062 682.15625 145.414062 686.328125 150.015625 C 690.503906 154.621094 694.558594 159.324219 698.503906 164.128906 C 702.445312 168.933594 706.265625 173.828125 709.96875 178.820312 C 713.667969 183.8125 717.246094 188.890625 720.699219 194.058594 C 724.152344 199.222656 727.472656 204.472656 730.667969 209.800781 C 733.863281 215.132812 736.925781 220.535156 739.855469 226.015625 C 742.785156 231.496094 745.578125 237.046875 748.234375 242.664062 C 750.890625 248.28125 753.40625 253.960938 755.785156 259.699219 C 758.164062 265.441406 760.398438 271.238281 762.492188 277.085938 C 764.585938 282.9375 766.535156 288.835938 768.339844 294.78125 C 770.140625 300.730469 771.796875 306.714844 773.308594 312.742188 C 774.820312 318.769531 776.179688 324.832031 777.390625 330.925781 C 778.605469 337.019531 779.667969 343.140625 780.578125 349.289062 C 781.488281 355.433594 782.25 361.601562 782.859375 367.785156 C 783.46875 373.96875 783.925781 380.164062 784.230469 386.371094 C 784.535156 392.574219 784.6875 398.785156 784.6875 405 Z M 784.6875 405 "/><path style=" stroke:none;fill-rule:nonzero;fill:#ffffff;fill-opacity:1;" d="M 291.09375 227.8125 L 518.90625 227.8125 C 520.148438 227.8125 521.390625 227.875 522.628906 227.996094 C 523.867188 228.117188 525.09375 228.300781 526.3125 228.542969 C 527.53125 228.785156 528.738281 229.085938 529.929688 229.449219 C 531.117188 229.808594 532.289062 230.226562 533.4375 230.703125 C 534.585938 231.179688 535.707031 231.710938 536.804688 232.296875 C 537.902344 232.882812 538.964844 233.519531 540 234.210938 C 541.035156 234.902344 542.03125 235.640625 542.992188 236.429688 C 543.953125 237.21875 544.875 238.054688 545.753906 238.933594 C 546.632812 239.8125 547.46875 240.734375 548.257812 241.695312 C 549.046875 242.65625 549.785156 243.652344 550.476562 244.6875 C 551.167969 245.722656 551.804688 246.785156 552.390625 247.882812 C 552.976562 248.980469 553.507812 250.101562 553.984375 251.25 C 554.460938 252.398438 554.878906 253.570312 555.238281 254.757812 C 555.601562 255.949219 555.902344 257.152344 556.144531 258.375 C 556.386719 259.59375 556.570312 260.820312 556.691406 262.058594 C 556.8125 263.296875 556.875 264.539062 556.875 265.78125 L 556.875 544.21875 C 556.875 545.460938 556.8125 546.703125 556.691406 547.941406 C 556.570312 549.179688 556.386719 550.40625 556.144531 551.625 C 555.902344 552.847656 555.601562 554.050781 555.238281 555.242188 C 554.878906 556.429688 554.460938 557.601562 553.984375 558.75 C 553.507812 559.898438 552.976562 561.019531 552.390625 562.117188 C 551.804688 563.214844 551.167969 564.277344 550.476562 565.3125 C 549.785156 566.347656 549.046875 567.34375 548.257812 568.304688 C 547.46875 569.265625 546.632812 570.1875 545.753906 571.066406 C 544.875 571.945312 543.953125 572.78125 542.992188 573.570312 C 542.03125 574.359375 541.035156 575.097656 540 575.789062 C 538.964844 576.480469 537.902344 577.117188 536.804688 577.703125 C 535.707031 578.289062 534.585938 578.820312 533.4375 579.296875 C 532.289062 579.773438 531.117188 580.191406 529.929688 580.550781 C 528.738281 580.914062 527.53125 581.214844 526.3125 581.457031 C 525.09375 581.699219 523.867188 581.882812 522.628906 582.003906 C 521.390625 582.125 520.148438 582.1875 518.90625 582.1875 L 291.09375 582.1875 C 289.851562 582.1875 288.609375 582.125 287.371094 582.003906 C 286.132812 581.882812 284.90625 581.699219 283.6875 581.457031 C 282.464844 581.214844 281.261719 580.914062 280.070312 580.550781 C 278.882812 580.191406 277.710938 579.773438 276.5625 579.296875 C 275.414062 578.820312 274.292969 578.289062 273.195312 577.703125 C 272.097656 577.117188 271.035156 576.480469 270 575.789062 C 268.964844 575.097656 267.96875 574.359375 267.007812 573.570312 C 266.046875 572.78125 265.125 571.945312 264.246094 571.066406 C 263.367188 570.1875 262.53125 569.265625 261.742188 568.304688 C 260.953125 567.34375 260.214844 566.347656 259.523438 565.3125 C 258.832031 564.277344 258.195312 563.214844 257.609375 562.117188 C 257.023438 561.019531 256.492188 559.898438 256.015625 558.75 C 255.539062 557.601562 255.121094 556.429688 254.761719 555.242188 C 254.398438 554.050781 254.097656 552.847656 253.855469 551.625 C 253.613281 550.40625 253.429688 549.179688 253.308594 547.941406 C 253.1875 546.703125 253.125 545.460938 253.125 544.21875 L 253.125 265.78125 C 253.125 264.539062 253.1875 263.296875 253.308594 262.058594 C 253.429688 260.820312 253.613281 259.59375 253.855469 258.375 C 254.097656 257.152344 254.398438 255.949219 254.761719 254.757812 C 255.121094 253.570312 255.539062 252.398438 256.015625 251.25 C 256.492188 250.101562 257.023438 248.980469 257.609375 247.882812 C 258.195312 246.785156 258.832031 245.722656 259.523438 244.6875 C 260.214844 243.652344 260.953125 242.65625 261.742188 241.695312 C 262.53125 240.734375 263.367188 239.8125 264.246094 238.933594 C 265.125 238.054688 266.046875 237.21875 267.007812 236.429688 C 267.96875 235.640625 268.964844 234.902344 270 234.210938 C 271.035156 233.519531 272.097656 232.882812 273.195312 232.296875 C 274.292969 231.710938 275.414062 231.179688 276.5625 230.703125 C 277.710938 230.226562 278.882812 229.808594 280.070312 229.449219 C 281.261719 229.085938 282.464844 228.785156 283.6875 228.542969 C 284.90625 228.300781 286.132812 228.117188 287.371094 227.996094 C 288.609375 227.875 289.851562 227.8125 291.09375 227.8125 Z M 291.09375 227.8125 "/><path style=" stroke:none;fill-rule:nonzero;fill:#ffffff;fill-opacity:1;" d="M 354.375 202.5 L 455.625 202.5 C 456.453125 202.5 457.28125 202.539062 458.105469 202.621094 C 458.929688 202.703125 459.75 202.824219 460.5625 202.988281 C 461.375 203.148438 462.179688 203.347656 462.972656 203.589844 C 463.765625 203.832031 464.546875 204.109375 465.3125 204.425781 C 466.078125 204.742188 466.824219 205.097656 467.558594 205.488281 C 468.289062 205.878906 469 206.304688 469.6875 206.765625 C 470.378906 207.226562 471.042969 207.71875 471.683594 208.246094 C 472.324219 208.773438 472.9375 209.328125 473.523438 209.914062 C 474.109375 210.5 474.664062 211.113281 475.191406 211.753906 C 475.71875 212.394531 476.210938 213.058594 476.671875 213.75 C 477.132812 214.4375 477.558594 215.148438 477.949219 215.878906 C 478.339844 216.613281 478.691406 217.359375 479.011719 218.125 C 479.328125 218.890625 479.605469 219.671875 479.847656 220.464844 C 480.089844 221.257812 480.289062 222.0625 480.449219 222.875 C 480.613281 223.6875 480.734375 224.507812 480.816406 225.332031 C 480.898438 226.15625 480.9375 226.984375 480.9375 227.8125 L 480.9375 253.125 C 480.9375 253.953125 480.898438 254.78125 480.816406 255.605469 C 480.734375 256.429688 480.613281 257.25 480.449219 258.0625 C 480.289062 258.875 480.089844 259.679688 479.847656 260.472656 C 479.605469 261.265625 479.328125 262.046875 479.011719 262.8125 C 478.691406 263.578125 478.339844 264.324219 477.949219 265.058594 C 477.558594 265.789062 477.132812 266.5 476.671875 267.1875 C 476.210938 267.878906 475.71875 268.542969 475.191406 269.183594 C 474.664062 269.824219 474.109375 270.4375 473.523438 271.023438 C 472.9375 271.609375 472.324219 272.164062 471.683594 272.691406 C 471.042969 273.21875 470.378906 273.710938 469.6875 274.171875 C 469 274.632812 468.289062 275.058594 467.558594 275.449219 C 466.824219 275.839844 466.078125 276.195312 465.3125 276.511719 C 464.546875 276.828125 463.765625 277.105469 462.972656 277.347656 C 462.179688 277.589844 461.375 277.789062 460.5625 277.949219 C 459.75 278.113281 458.929688 278.234375 458.105469 278.316406 C 457.28125 278.398438 456.453125 278.4375 455.625 278.4375 L 354.375 278.4375 C 353.546875 278.4375 352.71875 278.398438 351.894531 278.316406 C 351.070312 278.234375 350.25 278.113281 349.4375 277.949219 C 348.625 277.789062 347.820312 277.589844 347.027344 277.347656 C 346.234375 277.105469 345.453125 276.828125 344.6875 276.511719 C 343.921875 276.195312 343.175781 275.839844 342.441406 275.449219 C 341.710938 275.058594 341 274.632812 340.3125 274.171875 C 339.621094 273.710938 338.957031 273.21875 338.316406 272.691406 C 337.675781 272.164062 337.0625 271.609375 336.476562 271.023438 C 335.890625 270.4375 335.335938 269.824219 334.808594 269.183594 C 334.28125 268.542969 333.789062 267.878906 333.328125 267.1875 C 332.867188 266.5 332.441406 265.789062 332.050781 265.058594 C 331.660156 264.324219 331.304688 263.578125 330.988281 262.8125 C 330.671875 262.046875 330.394531 261.265625 330.152344 260.472656 C 329.910156 259.679688 329.710938 258.875 329.546875 258.0625 C 329.386719 257.25 329.265625 256.429688 329.183594 255.605469 C 329.101562 254.78125 329.0625 253.953125 329.0625 253.125 L 329.0625 227.8125 C 329.0625 226.984375 329.101562 226.15625 329.183594 225.332031 C 329.265625 224.507812 329.386719 223.6875 329.546875 222.875 C 329.710938 222.0625 329.910156 221.257812 330.152344 220.464844 C 330.394531 219.671875 330.671875 218.890625 330.988281 218.125 C 331.304688 217.359375 331.660156 216.613281 332.050781 215.878906 C 332.441406 215.148438 332.867188 214.4375 333.328125 213.75 C 333.789062 213.058594 334.28125 212.394531 334.808594 211.753906 C 335.335938 211.113281 335.890625 210.5 336.476562 209.914062 C 337.0625 209.328125 337.675781 208.773438 338.316406 208.246094 C 338.957031 207.71875 339.621094 207.226562 340.3125 206.765625 C 341 206.304688 341.710938 205.878906 342.441406 205.488281 C 343.175781 205.097656 343.921875 204.742188 344.6875 204.425781 C 345.453125 204.109375 346.234375 203.832031 347.027344 203.589844 C 347.820312 203.347656 348.625 203.148438 349.4375 202.988281 C 350.25 202.824219 351.070312 202.703125 351.894531 202.621094 C 352.71875 202.539062 353.546875 202.5 354.375 202.5 Z M 354.375 202.5 "/><path style=" stroke:none;fill-rule:nonzero;fill:#d9d9d9;fill-opacity:1;" d="M 316.40625 329.0625 L 493.59375 329.0625 C 494.425781 329.0625 495.246094 329.144531 496.0625 329.304688 C 496.878906 329.46875 497.667969 329.707031 498.4375 330.027344 C 499.203125 330.34375 499.933594 330.734375 500.625 331.195312 C 501.316406 331.65625 501.957031 332.183594 502.542969 332.769531 C 503.128906 333.355469 503.65625 333.996094 504.117188 334.6875 C 504.578125 335.378906 504.96875 336.109375 505.285156 336.875 C 505.605469 337.644531 505.84375 338.433594 506.007812 339.25 C 506.167969 340.066406 506.25 340.886719 506.25 341.71875 C 506.25 342.550781 506.167969 343.371094 506.007812 344.1875 C 505.84375 345.003906 505.605469 345.792969 505.285156 346.5625 C 504.96875 347.328125 504.578125 348.058594 504.117188 348.75 C 503.65625 349.441406 503.128906 350.082031 502.542969 350.667969 C 501.957031 351.253906 501.316406 351.78125 500.625 352.242188 C 499.933594 352.703125 499.203125 353.09375 498.4375 353.410156 C 497.667969 353.730469 496.878906 353.96875 496.0625 354.132812 C 495.246094 354.292969 494.425781 354.375 493.59375 354.375 L 316.40625 354.375 C 315.574219 354.375 314.753906 354.292969 313.9375 354.132812 C 313.121094 353.96875 312.332031 353.730469 311.5625 353.410156 C 310.796875 353.09375 310.066406 352.703125 309.375 352.242188 C 308.683594 351.78125 308.042969 351.253906 307.457031 350.667969 C 306.871094 350.082031 306.34375 349.441406 305.882812 348.75 C 305.421875 348.058594 305.03125 347.328125 304.714844 346.5625 C 304.394531 345.792969 304.15625 345.003906 303.992188 344.1875 C 303.832031 343.371094 303.75 342.550781 303.75 341.71875 C 303.75 340.886719 303.832031 340.066406 303.992188 339.25 C 304.15625 338.433594 304.394531 337.644531 304.714844 336.875 C 305.03125 336.109375 305.421875 335.378906 305.882812 334.6875 C 306.34375 333.996094 306.871094 333.355469 307.457031 332.769531 C 308.042969 332.183594 308.683594 331.65625 309.375 331.195312 C 310.066406 330.734375 310.796875 330.34375 311.5625 330.027344 C 312.332031 329.707031 313.121094 329.46875 313.9375 329.304688 C 314.753906 329.144531 315.574219 329.0625 316.40625 329.0625 Z M 316.40625 329.0625 "/><path style=" stroke:none;fill-rule:nonzero;fill:#d9d9d9;fill-opacity:1;" d="M 316.40625 379.6875 L 493.59375 379.6875 C 494.425781 379.6875 495.246094 379.769531 496.0625 379.929688 C 496.878906 380.09375 497.667969 380.332031 498.4375 380.652344 C 499.203125 380.96875 499.933594 381.359375 500.625 381.820312 C 501.316406 382.28125 501.957031 382.808594 502.542969 383.394531 C 503.128906 383.980469 503.65625 384.621094 504.117188 385.3125 C 504.578125 386.003906 504.96875 386.734375 505.285156 387.5 C 505.605469 388.269531 505.84375 389.058594 506.007812 389.875 C 506.167969 390.691406 506.25 391.511719 506.25 392.34375 C 506.25 393.175781 506.167969 393.996094 506.007812 394.8125 C 505.84375 395.628906 505.605469 396.417969 505.285156 397.1875 C 504.96875 397.953125 504.578125 398.683594 504.117188 399.375 C 503.65625 400.066406 503.128906 400.707031 502.542969 401.292969 C 501.957031 401.878906 501.316406 402.40625 500.625 402.867188 C 499.933594 403.328125 499.203125 403.71875 498.4375 404.035156 C 497.667969 404.355469 496.878906 404.59375 496.0625 404.757812 C 495.246094 404.917969 494.425781 405 493.59375 405 L 316.40625 405 C 315.574219 405 314.753906 404.917969 313.9375 404.757812 C 313.121094 404.59375 312.332031 404.355469 311.5625 404.035156 C 310.796875 403.71875 310.066406 403.328125 309.375 402.867188 C 308.683594 402.40625 308.042969 401.878906 307.457031 401.292969 C 306.871094 400.707031 306.34375 400.066406 305.882812 399.375 C 305.421875 398.683594 305.03125 397.953125 304.714844 397.1875 C 304.394531 396.417969 304.15625 395.628906 303.992188 394.8125 C 303.832031 393.996094 303.75 393.175781 303.75 392.34375 C 303.75 391.511719 303.832031 390.691406 303.992188 389.875 C 304.15625 389.058594 304.394531 388.269531 304.714844 387.5 C 305.03125 386.734375 305.421875 386.003906 305.882812 385.3125 C 306.34375 384.621094 306.871094 383.980469 307.457031 383.394531 C 308.042969 382.808594 308.683594 382.28125 309.375 381.820312 C 310.066406 381.359375 310.796875 380.96875 311.5625 380.652344 C 312.332031 380.332031 313.121094 380.09375 313.9375 379.929688 C 314.753906 379.769531 315.574219 379.6875 316.40625 379.6875 Z M 316.40625 379.6875 "/><path style=" stroke:none;fill-rule:nonzero;fill:#d9d9d9;fill-opacity:1;" d="M 316.40625 430.3125 L 493.59375 430.3125 C 494.425781 430.3125 495.246094 430.394531 496.0625 430.554688 C 496.878906 430.71875 497.667969 430.957031 498.4375 431.277344 C 499.203125 431.59375 499.933594 431.984375 500.625 432.445312 C 501.316406 432.90625 501.957031 433.433594 502.542969 434.019531 C 503.128906 434.605469 503.65625 435.246094 504.117188 435.9375 C 504.578125 436.628906 504.96875 437.359375 505.285156 438.125 C 505.605469 438.894531 505.84375 439.683594 506.007812 440.5 C 506.167969 441.316406 506.25 442.136719 506.25 442.96875 C 506.25 443.800781 506.167969 444.621094 506.007812 445.4375 C 505.84375 446.253906 505.605469 447.042969 505.285156 447.8125 C 504.96875 448.578125 504.578125 449.308594 504.117188 450 C 503.65625 450.691406 503.128906 451.332031 502.542969 451.917969 C 501.957031 452.503906 501.316406 453.03125 500.625 453.492188 C 499.933594 453.953125 499.203125 454.34375 498.4375 454.660156 C 497.667969 454.980469 496.878906 455.21875 496.0625 455.382812 C 495.246094 455.542969 494.425781 455.625 493.59375 455.625 L 316.40625 455.625 C 315.574219 455.625 314.753906 455.542969 313.9375 455.382812 C 313.121094 455.21875 312.332031 454.980469 311.5625 454.660156 C 310.796875 454.34375 310.066406 453.953125 309.375 453.492188 C 308.683594 453.03125 308.042969 452.503906 307.457031 451.917969 C 306.871094 451.332031 306.34375 450.691406 305.882812 450 C 305.421875 449.308594 305.03125 448.578125 304.714844 447.8125 C 304.394531 447.042969 304.15625 446.253906 303.992188 445.4375 C 303.832031 444.621094 303.75 443.800781 303.75 442.96875 C 303.75 442.136719 303.832031 441.316406 303.992188 440.5 C 304.15625 439.683594 304.394531 438.894531 304.714844 438.125 C 305.03125 437.359375 305.421875 436.628906 305.882812 435.9375 C 306.34375 435.246094 306.871094 434.605469 307.457031 434.019531 C 308.042969 433.433594 308.683594 432.90625 309.375 432.445312 C 310.066406 431.984375 310.796875 431.59375 311.5625 431.277344 C 312.332031 430.957031 313.121094 430.71875 313.9375 430.554688 C 314.753906 430.394531 315.574219 430.3125 316.40625 430.3125 Z M 316.40625 430.3125 "/><path style=" stroke:none;fill-rule:nonzero;fill:#d9d9d9;fill-opacity:1;" d="M 316.40625 480.9375 L 442.96875 480.9375 C 443.800781 480.9375 444.621094 481.019531 445.4375 481.179688 C 446.253906 481.34375 447.042969 481.582031 447.8125 481.902344 C 448.578125 482.21875 449.308594 482.609375 450 483.070312 C 450.691406 483.53125 451.332031 484.058594 451.917969 484.644531 C 452.503906 485.230469 453.03125 485.871094 453.492188 486.5625 C 453.953125 487.253906 454.34375 487.984375 454.660156 488.75 C 454.980469 489.519531 455.21875 490.308594 455.382812 491.125 C 455.542969 491.941406 455.625 492.761719 455.625 493.59375 C 455.625 494.425781 455.542969 495.246094 455.382812 496.0625 C 455.21875 496.878906 454.980469 497.667969 454.660156 498.4375 C 454.34375 499.203125 453.953125 499.933594 453.492188 500.625 C 453.03125 501.316406 452.503906 501.957031 451.917969 502.542969 C 451.332031 503.128906 450.691406 503.65625 450 504.117188 C 449.308594 504.578125 448.578125 504.96875 447.8125 505.285156 C 447.042969 505.605469 446.253906 505.84375 445.4375 506.007812 C 444.621094 506.167969 443.800781 506.25 442.96875 506.25 L 316.40625 506.25 C 315.574219 506.25 314.753906 506.167969 313.9375 506.007812 C 313.121094 505.84375 312.332031 505.605469 311.5625 505.285156 C 310.796875 504.96875 310.066406 504.578125 309.375 504.117188 C 308.683594 503.65625 308.042969 503.128906 307.457031 502.542969 C 306.871094 501.957031 306.34375 501.316406 305.882812 500.625 C 305.421875 499.933594 305.03125 499.203125 304.714844 498.4375 C 304.394531 497.667969 304.15625 496.878906 303.992188 496.0625 C 303.832031 495.246094 303.75 494.425781 303.75 493.59375 C 303.75 492.761719 303.832031 491.941406 303.992188 491.125 C 304.15625 490.308594 304.394531 489.519531 304.714844 488.75 C 305.03125 487.984375 305.421875 487.253906 305.882812 486.5625 C 306.34375 485.871094 306.871094 485.230469 307.457031 484.644531 C 308.042969 484.058594 308.683594 483.53125 309.375 483.070312 C 310.066406 482.609375 310.796875 482.21875 311.5625 481.902344 C 312.332031 481.582031 313.121094 481.34375 313.9375 481.179688 C 314.753906 481.019531 315.574219 480.9375 316.40625 480.9375 Z M 316.40625 480.9375 "/></g></svg>